<?xml version="1.0" encoding="utf-8"?>
<svg version="1.1" id="Layer_1" xmlns="http://www.w3.org/2000/svg" xmlns:xlink="http://www.w3.org/1999/xlink" x="0px" y="0px"
	 viewBox="0 0 1160 599.628" enable-background="new 0 0 1160 599.628" xml:space="preserve">
<g>
	<path 
	fill='#8dc2b6'
	d="M1029.319,259.089c-63.747-32.71-130.797-31.882-200.385-21.323c-73.772,11.194-148.198,28.508-219.173,53.485
		c-52.862,18.603-107.053,40.256-156.677,66.413c-104.551,55.11-184.294,78.989-290.169,91.459
		c-53.607,4.941-110.88-2.359-126.017-50.298c-6.442-20.403,15.293-36.952,40.674-29.779c23.797,6.725,25.097,28.502,23.605,51.75
		c15.496-19.025,20.857-37.927,11.622-56.652c-8.207-16.641-21.838-26.633-40.551-26.134c-28.817,0.768-55.322,15.764-65.39,43.308
		c-7.895,21.597-9.996,49.844-0.829,71.437c35.227,82.982,145.959,134.749,253.487,133.643
		c64.785-3.48,129.685-25.765,190.77-45.998c145.879-48.319,252.319-97.298,264.119-101.581
		c91.182-33.102,186.99-66.952,284.461-74.828c43.103-3.483,86.527,11.078,93.016,32.474c6.718,22.153-0.726,50.298-22.516,52.659
		c-21.789,2.361-38.594-32.194-31.232-58.831c-1.412,5.109-9.241,11.697-12.228,16.423c-8.917,14.107-14.809,30.682-3.705,43.533
		c27.454,31.771,111.376,28.31,109.304-57.266C1130.03,332.066,1083.081,286.676,1029.319,259.089z M486.856,480.354
		c-175.746,74.078-309.094,77.656-374.783,20.337c3.282,2.864,20.854,0.296,25.418,0.245c67.263-0.75,139.149-13.102,201.097-37.831
		c320.463-127.926,365.916-148.56,446.786-169.416c112.273-28.955,194.03-17.102,239.686,25.421
		C866.569,323.062,687.639,395.724,486.856,480.354z"/>

</g>
</svg>
