<?xml version="1.0" encoding="UTF-8"?>
<svg enable-background="new 0 0 286.1 133.5" version="1.1" viewBox="0 0 286.1 133.5" xml:space="preserve" xmlns="http://www.w3.org/2000/svg">
<style type="text/css">
path {fill:#ffffff;}
</style>
	<path d="m142.4 13z"/>
			<path d="m265.4 104.5v-0.9c-1.4 0-2.3-0.4-2.8-1.1-0.5-0.8-0.7-2.1-0.7-3.9v-9.6l15.4 15.6h7.6v-0.9c-1.3-0.1-2.3-0.3-3-0.7s-1.7-1.3-3-2.6l-13.1-13.3 9.9-9.8c1-1 2.2-1.9 3.4-2.5s2.3-1 3.3-1h1.6v-0.9h-12v0.9c1.3 0.3 2 0.9 2 1.8 0 0.7-0.6 1.6-1.7 2.7l-10.4 10.2v-9.6c0-1.9 0.3-3.2 0.8-3.9 0.5-0.8 1.4-1.1 2.8-1.1v-0.9h-11.5v0.9c1.4 0 2.4 0.4 2.9 1.1s0.7 2.1 0.7 4v19.8c0 1.9-0.3 3.2-0.8 3.9s-1.5 1.1-2.8 1.1v0.9h11.4z"/>
			<path d="m242.2 72.7v0.9c2.1 0 3.2 0.9 3.2 2.8 0 0.9-0.3 2.1-0.8 3.5l-6.6 17.8-7.4-20.1c-0.3-0.8-0.4-1.5-0.4-2 0-1.3 1-1.9 3.1-1.9v-0.9h-11.6v0.9c1.2 0 2.1 0.3 2.8 0.8 0.6 0.5 1.2 1.4 1.6 2.7l0.7 2.1-6.8 18.4-7.4-20.2c-0.3-0.7-0.4-1.3-0.4-1.8 0-1.2 0.9-1.8 2.8-2.1v-0.9h-11.8v0.9c1.2 0 2.1 0.1 2.6 0.4s0.9 0.8 1.4 1.5c0.4 0.7 0.9 1.8 1.4 3.2l9.7 26.2h0.9l8.4-23.5 8.7 23.5h1l8.9-24.8c0.8-2.3 1.7-3.9 2.5-4.9 0.8-0.9 1.9-1.5 3.1-1.6v-0.9h-9.6z"/>
			<path d="m195.3 76.2l4.5 13.5h-9l4.5-13.5zm16.8 28.3v-0.9c-1.3 0-2.2-0.2-2.8-0.7s-1.2-1.5-1.7-3.1l-9.2-27.4h-3.4l-8.8 26.2c-0.7 1.9-1.3 3.2-2 3.8-0.6 0.6-1.6 1-2.7 1.2v0.9h8.2v-0.9c-1.7 0-2.5-0.7-2.5-2.1 0-0.7 0.3-1.9 0.8-3.5l2.2-6.4h10.2l3 8.8c0.2 0.5 0.2 0.9 0.2 1.2 0 1.3-0.9 1.9-2.7 1.9v0.9h11.2z"/>
			<path d="m170.8 102.5c-0.5 0.7-1.4 1.1-2.8 1.1v0.9h11.4v-0.9c-1.4 0-2.3-0.4-2.8-1.1s-0.8-2-0.8-3.9v-19.9c0-1.9 0.3-3.2 0.8-4 0.5-0.7 1.5-1.1 2.8-1.1v-0.9h-11.4v0.9c1.4 0 2.3 0.4 2.8 1.1s0.7 2 0.7 4v9h-17.3v-9c0-1.8 0.3-3.1 0.8-3.9s1.5-1.2 2.9-1.2v-0.9h-11.5v0.9c1.4 0 2.3 0.4 2.8 1.1s0.8 2 0.8 4v19.8c0 1.9-0.3 3.2-0.8 3.9s-1.5 1.1-2.8 1.1v0.9h11.5v-0.9c-1.4 0-2.4-0.4-2.9-1.1s-0.8-2.1-0.8-3.9v-9.2h17.3v9.2c0 1.9-0.3 3.2-0.7 4"/>
			<path d="m123.7 104.5v-0.9c-1.4 0-2.3-0.4-2.8-1.1-0.5-0.8-0.7-2.1-0.7-3.9v-9.6l15.4 15.6h7.6v-0.9c-1.3-0.1-2.2-0.3-3-0.7-0.7-0.4-1.7-1.3-3-2.6l-13.1-13.3 9.9-9.8c1-1 2.2-1.9 3.4-2.5s2.3-1 3.3-1h1.6v-0.9h-12v0.9c1.3 0.3 2 0.9 2 1.8 0 0.7-0.6 1.6-1.7 2.7l-10.4 10.2v-9.6c0-1.9 0.3-3.2 0.8-3.9 0.5-0.8 1.4-1.1 2.8-1.1v-0.9h-11.4v0.9c1.4 0 2.4 0.4 2.9 1.1s0.7 2.1 0.7 4v19.8c0 1.9-0.3 3.2-0.8 3.9s-1.5 1.1-2.8 1.1v0.9h11.3z"/>
			<path d="m107.5 72.2c-0.3 0.7-0.9 1-1.7 1-0.5 0-1.5-0.2-2.8-0.5-2.4-0.6-4.5-0.8-6-0.8-4.7 0-8.6 1.7-11.8 5-3.1 3.3-4.7 7.5-4.7 12.6 0 3.1 0.7 5.8 2 8.2s3.2 4.2 5.7 5.6c2.4 1.4 5.1 2 8 2 3 0 5.7-0.7 8.1-2.2s4.1-3.5 5.2-6l-0.8-0.8c-2.4 4.7-6.1 7-11.1 7-3.6 0-6.5-1.4-8.8-4.3-2.2-2.9-3.3-6.7-3.3-11.5 0-4.3 1.1-7.8 3.2-10.4s5-3.9 8.6-3.9c2.8 0 5 0.7 6.7 2.1s2.9 3.6 3.6 6.5h0.9v-9.5h-1z"/>
			<path d="m65.8 76.2l4.5 13.5h-9l4.5-13.5zm16.8 28.3v-0.9c-1.3 0-2.2-0.2-2.8-0.7s-1.2-1.5-1.7-3.1l-9.2-27.4h-3.3l-8.8 26.2c-0.7 1.9-1.3 3.2-2 3.8s-1.6 1-2.7 1.2v0.9h8.2v-0.9c-1.7 0-2.5-0.7-2.5-2.1 0-0.7 0.3-1.9 0.8-3.5l2.2-6.4h10.2l2.9 8.8c0.2 0.5 0.2 0.9 0.2 1.2 0 1.3-0.9 1.9-2.7 1.9v0.9h11.2z"/>
			<path d="m48.4 101.9c-0.8 0.7-2.1 1-4.1 1h-6.3c-1.4 0-2.4-0.2-2.9-0.7-0.5-0.4-0.7-1.2-0.7-2.4v-21.2c0-1.8 0.3-3.1 0.8-3.8 0.6-0.8 1.5-1.2 2.7-1.2v-0.9h-11.3v0.9c1.4 0 2.3 0.3 2.8 1s0.8 1.9 0.8 3.6v20c0 1.9-0.3 3.3-0.8 4.1-0.6 0.8-1.5 1.2-2.8 1.2v0.9h23l1.9-6.9h-0.9c-0.7 2.3-1.4 3.7-2.2 4.4"/>
			<path d="m17.5 90.8c1.7 1.4 2.5 3.3 2.5 5.7 0 2.1-0.6 3.7-1.8 5-1.2 1.2-2.7 1.9-4.5 1.9h-2.6c-1.3 0-2.2-0.4-2.6-1.1-0.5-0.8-0.7-2.2-0.7-4.2v-9.3h3c2.8-0.2 5 0.5 6.7 2m-6.5-16.9c2.4 0 4.3 0.6 5.6 1.8s2 2.9 2 5c0 2-0.7 3.7-2 4.9-1.4 1.2-3.2 1.8-5.5 1.8h-3.3v-13.5h3.2zm11.1 28.5c1.9-1.4 2.8-3.3 2.8-5.7 0-2.1-0.8-4.1-2.3-5.7-1.5-1.7-3.5-2.7-5.9-3.2v-0.1c4.3-1.4 6.4-3.8 6.4-7.2 0-2.3-1-4.2-3-5.6s-4.7-2.1-8.1-2.1h-12v0.9c1.4 0 2.4 0.4 2.9 1.1s0.7 2.1 0.7 4v19.8c0 1.9-0.3 3.2-0.8 3.9s-1.5 1.1-2.8 1.1v0.9h14.6c3.1 0 5.6-0.7 7.5-2.1"/>
			<path d="m77 115.5v0.5c-0.7 0.1-1.2 0.4-1.6 0.7-0.3 0.3-0.5 0.8-0.5 1.4 0 0.2 0 0.5 0.1 0.8l1.6 11c0.1 0.8 0.4 1.4 0.8 1.9 0.4 0.4 1.1 0.7 1.9 0.9v0.5h-8.7v-0.5c0.7-0.2 1.2-0.5 1.6-0.9 0.3-0.4 0.5-1 0.5-1.7 0-0.4 0-0.8-0.1-1.3l-1.4-10.1-5.8 14.4h-0.6l-5.8-14.5-1.5 10.4c-0.1 0.4-0.1 0.8-0.1 1.1 0 1.5 0.7 2.4 2.2 2.5v0.5h-6.4v-0.5c0.9 0 1.6-0.4 2.1-0.9 0.5-0.6 0.8-1.6 1-2.9l1.7-11.5c-0.7-0.8-1.6-1.2-2.6-1.2v-0.5h6.4l4.6 11.6 4.7-11.6h5.9z"/>
			<path d="m105.1 133.1v-2.4c-1.1 1.1-2 1.8-2.8 2.2s-1.8 0.6-2.9 0.6c-1.8 0-3.3-0.5-4.4-1.6s-1.6-2.5-1.6-4.3v-9.2c0-0.8-0.1-1.3-0.4-1.7s-0.9-0.6-1.8-0.8v-0.5h8.3v0.5c-0.9 0.2-1.5 0.5-1.8 0.8s-0.4 0.9-0.4 1.8v9.8c0 1.1 0.3 1.9 0.9 2.5s1.4 0.9 2.4 0.9c1.4 0 3-0.8 4.5-2.4v-11c0-0.8-0.1-1.3-0.4-1.7-0.3-0.3-0.9-0.6-1.8-0.8v-0.5h8.3v0.5c-0.8 0.2-1.4 0.4-1.7 0.8-0.3 0.3-0.5 1-0.5 2v11.3c0 0.8 0.1 1.3 0.4 1.7 0.3 0.3 0.9 0.6 1.8 0.8v0.5h-6.1z"/>
			<path d="m134.1 115v4.6h-0.5c-0.3-1-0.9-1.9-1.8-2.6-0.8-0.7-1.7-1.1-2.6-1.1-0.8 0-1.5 0.2-2 0.7-0.6 0.5-0.8 1-0.8 1.7 0 0.3 0.1 0.6 0.2 1 0.1 0.3 0.4 0.6 0.6 0.9 0.3 0.3 1.2 0.9 2.7 1.8 1.6 0.9 2.5 1.6 3 2 0.4 0.4 0.9 0.8 1.3 1.4 0.6 0.9 0.9 1.9 0.9 2.9 0 1.6-0.6 2.8-1.7 3.7s-2.4 1.4-4 1.4c-0.8 0-1.8-0.2-3-0.5-0.6-0.2-1-0.2-1.3-0.2-0.4 0-0.7 0.2-0.9 0.6h-0.5v-5.3h0.5c0.3 1.4 0.8 2.5 1.6 3.2 0.8 0.8 1.9 1.2 3.1 1.2 0.9 0 1.7-0.2 2.3-0.7s0.9-1.1 0.9-1.8c0-0.6-0.2-1.1-0.6-1.7-0.4-0.5-1.4-1.3-3.1-2.3-1.6-0.9-2.6-1.7-3.1-2.2s-0.9-1.1-1.1-1.7c-0.3-0.6-0.4-1.3-0.4-2 0-1.5 0.5-2.7 1.5-3.7s2.4-1.4 4-1.4c0.5 0 1.1 0.1 1.8 0.2 0.7 0.2 1.2 0.2 1.5 0.2s0.6-0.2 0.9-0.5h0.6z"/>
			<path d="m159.5 121.5h0.6v5.5h-0.6c-0.2-1.5-1-2.2-2.4-2.2h-3.1v5.2c0 0.8 0.2 1.4 0.5 1.7 0.4 0.3 1 0.5 1.9 0.5h1c1.7 0 3-1.1 3.7-3.3h0.5l-0.3 4.3h-13.4v-0.5c0.9-0.2 1.5-0.5 1.8-0.8s0.4-1 0.4-2v-11.3c0-0.8-0.2-1.4-0.5-1.7s-0.9-0.6-1.8-0.7v-0.5h13.2v3.9h-0.5c-0.3-1.1-0.7-1.9-1.1-2.3s-1.1-0.6-2.1-0.6h-3.3v7.3h3.1c0.7 0 1.2-0.2 1.6-0.5 0.3-0.6 0.6-1.2 0.8-2z"/>
			<path d="m187.5 133.1v-2.4c-1.1 1.1-2 1.8-2.8 2.2s-1.8 0.6-2.9 0.6c-1.8 0-3.3-0.5-4.4-1.6s-1.6-2.5-1.6-4.3v-9.2c0-0.8-0.1-1.3-0.4-1.7-0.3-0.3-0.9-0.6-1.8-0.8v-0.5h8.3v0.5c-0.9 0.2-1.5 0.5-1.8 0.8s-0.4 0.9-0.4 1.8v9.8c0 1.1 0.3 1.9 0.9 2.5s1.4 0.9 2.4 0.9c1.4 0 3-0.8 4.5-2.4v-11c0-0.8-0.1-1.3-0.4-1.7-0.3-0.3-0.9-0.6-1.8-0.8v-0.5h8.3v0.5c-0.8 0.2-1.4 0.4-1.7 0.8-0.3 0.3-0.5 1-0.5 2v11.3c0 0.8 0.1 1.3 0.4 1.7 0.3 0.3 0.9 0.6 1.8 0.8v0.5h-6.1z"/>
			<path d="m229.4 115.5v0.5c-0.7 0.1-1.2 0.4-1.6 0.7-0.3 0.3-0.5 0.8-0.5 1.4 0 0.2 0 0.5 0.1 0.8l1.6 11c0.1 0.8 0.4 1.4 0.8 1.9 0.4 0.4 1.1 0.7 1.9 0.9v0.5h-8.7v-0.5c0.7-0.2 1.2-0.5 1.6-0.9 0.3-0.4 0.5-1 0.5-1.7 0-0.4 0-0.8-0.1-1.3l-1.4-10.1-5.8 14.4h-0.8l-5.7-14.4-1.5 10.3c-0.1 0.4-0.1 0.8-0.1 1.1 0 1.5 0.7 2.4 2.2 2.5v0.5h-6.4v-0.5c0.9 0 1.6-0.4 2.1-0.9 0.5-0.6 0.8-1.6 1-2.9l1.7-11.5c-0.7-0.8-1.6-1.2-2.6-1.2v-0.5h6.4l4.6 11.6 4.7-11.6h6z"/>
		<path d="m272.8 60.9l-2.6-1.2-20.2-9.2-2.6-1.2c-0.2-0.1-0.4-0.1-0.6-0.1l-2 0.4-30.4 5.5h-0.5l-8.1-3-2.8-1.1c-0.2-0.1-0.4-0.1-0.5 0l-2.1 0.5-6.7 1.4c-0.6 0.1-1.2-0.3-1.2-0.9v-20.7c0-0.4-0.2-0.7-0.6-0.9l-2.5-1.1-14.4-6c-0.4-0.1-0.6-0.5-0.6-0.9v-9.5c0-0.4-0.2-0.7-0.6-0.9l-2.6-1.2-7.4-3.5-2.7-1.3c-0.1-0.1-0.3-0.1-0.4-0.1h-4.5c-0.1 0-0.3 0-0.4-0.1l-13.4-5.8-13.4 5.8c-0.1 0.1-0.3 0.1-0.4 0.1h-4.5c-0.1 0-0.3 0-0.4 0.1l-2.8 1.3-7.4 3.5-2.6 1.2c-0.3 0.2-0.6 0.5-0.6 0.9v9.5c0 0.4-0.2 0.7-0.6 0.9l-14.4 6-2.5 1.1c-0.4 0.1-0.6 0.5-0.6 0.9v20.7c0 0.6-0.6 1.1-1.2 0.9l-6.7-1.4-2-0.5h-0.5l-2.9 1.1-8.1 3c-0.2 0.1-0.3 0.1-0.5 0l-30.4-5.5-2-0.4c-0.2 0-0.4 0-0.6 0.1l-2.6 1.2-20.2 9.2-2.5 1.2c-0.3 0.2-0.6 0.5-0.6 0.9v2c0 0.7 0.6 1.1 1.3 0.9l1.2-0.4c0.4-0.1 0.7-0.5 0.7-0.9v-1.6c0-0.4 0.2-0.7 0.6-0.9l21.5-9.9c0.2-0.1 0.4-0.1 0.6-0.1l29.8 5.4 2.3 0.4h0.5l3.1-1.1 8-2.9c0.2-0.1 0.4-0.1 0.5 0l10.8 2.3 1.9 0.4c0.6 0.1 1.2-0.3 1.2-0.9v-23c0-0.4 0.2-0.7 0.6-0.9l14.4-6 2.5-1.1c0.4-0.1 0.6-0.5 0.6-0.9v-9.6c0-0.4 0.2-0.7 0.6-0.9l8.4-3.9c0.6-0.3 1.4 0.2 1.4 0.9v22.9h1.1v-23.7c0-0.5 0.4-1 1-1h3c0.1 0 0.3 0 0.4-0.1l3-1.3 8.2-3.6c0.6-0.3 1.3 0.2 1.3 0.9v37.3h1.1v-37.3c0-0.7 0.7-1.2 1.3-0.9l8.2 3.6 3 1.3c0.1 0.1 0.3 0.1 0.4 0.1h3c0.5 0 1 0.4 1 1v23.6h1.1v-22.9c0-0.7 0.7-1.2 1.4-0.9l8.4 3.9c0.3 0.2 0.6 0.5 0.6 0.9v9.7c0 0.4 0.2 0.7 0.6 0.9l2.5 1.1 14.4 6c0.4 0.1 0.6 0.5 0.6 0.9v23c0 0.6 0.6 1.1 1.2 0.9l1.9-0.4 10.8-2.3h0.5l8 2.9 3.1 1.1c0.2 0.1 0.3 0.1 0.5 0l2.3-0.4 29.8-5.4c0.2 0 0.4 0 0.6 0.1l21.6 9.9c0.3 0.2 0.6 0.5 0.6 0.9v1.6c0 0.4 0.3 0.8 0.7 0.9l1.2 0.4c0.6 0.2 1.3-0.3 1.3-0.9v-2c-0.2-0.4-0.4-0.7-0.8-0.9z"/>
</svg>
