<svg xmlns="http://www.w3.org/2000/svg" xmlns:xlink="http://www.w3.org/1999/xlink" viewBox="0 0 504 504" xmlns:v="https://vecta.io/nano"><path d="M452.9 14.4S390.3.7 255.2 0 57.5 14.4 57.5 14.4v282.5c0 27.1 8.6 54.5 25.7 81.5 14 22.2 33.3 43.6 57.4 63.8 42.6 35.6 90.9 59.3 113.1 61.6l1.5.1 1.5-.1c22.2-2.3 70.5-26 113.1-61.6 24.1-20.2 43.5-41.7 57.4-63.8 17-27 25.7-54.4 25.7-81.5V14.4z" fill="#fff" opacity=".14"/><path d="M437.3 29.5S379.7 16.6 255.2 16C130.8 15.4 73.1 29.5 73.1 29.5v264.6c0 25.4 7.9 51.1 23.6 76.3 12.9 20.8 30.7 40.9 52.9 59.8 39.2 33.4 83.8 55.6 104.2 57.7l1.4.1 1.4-.1c20.4-2.2 65-24.3 104.2-57.7 22.2-18.9 40-39 52.9-59.8 15.7-25.3 23.6-51 23.6-76.3V29.5z" fill="#d0d2d3"/><defs><path id="A" d="M409.9 97.4v211.5c0 83.7-124.2 149.7-154.7 152.7-30.5-3-154.7-69-154.7-152.7V97.4s101.4-11.6 158.1-11.6c53.1 0 151.3 11.6 151.3 11.6z"/></defs><clipPath id="B"><use xlink:href="#A"/></clipPath><g clip-path="url(#B)"><path fill="#2f5471" d="M415.3 39.9l-1.4 433.6-315.9-.8 1.3-433.6z"/><path d="M99.3 39.1l-.2 54.3L181 206.5l-82.2-.2-.3 99.5 85.6.2-86 119.2-.1 47.5 42.7.1 61.9-85.5-.3 85.6 109.5.3.3-84.9 61.8 85.1 40 .1.2-56.2-80.5-110.9 80.9.2.3-99.5-82.3-.2 82.6-114.2.2-52.8-39.5-.1-62.8 86.9.3-87-109.5-.3-.3 86.6-62.9-86.7-41.3-.2z" fill="#fff"/><g fill="#ec1c24"><path d="M202.8 333.4L98 472.7l27.6.1 77.2-104.1v-35.3zm110-154.4L415.3 39.9l-25.6-.1-76.8 103.9-.1 35.3zm-.4 127.3l-.1 28.7L414 473.4l.1-33.1-96.7-134h-5zm-109.2-99.7l.1-26.7L101.9 39.1h-2.6l-.1 31.6 97.5 135.8 6.5.1zM227 39.4l-.6 188.5-127.6-.3-.2 56.9 127.6.3-.6 188.2 63 .2.6-188.3 125.3.4.2-56.9-125.3-.3.6-188.5z"/></g></g><path d="M396.9 371.9s-55.3-8.8-141.7-8.4c-84.1.4-141.7 8.4-141.7 8.4v-61.2s57.6-13.5 143.7-13.1c85.6.4 139.7 13.1 139.7 13.1v61.2zm13-260.2s-60.4-8.8-154.7-8.4c-91.8.4-154.7 8.4-154.7 8.4V50.5S163.4 37 257.4 37.4c93.5.4 152.6 13.1 152.6 13.1v61.2z" opacity=".4" fill="#231f20"/><g fill="#fff"><path d="M413 180.5s-61.6-10.6-157.8-10.9c-93.7-.3-157.8 10.9-157.8 10.9v123.8s6.2 55.7 17.6 56.9c0 0 76.4-7.1 142.5-7.3 63.3-.2 136.2 7.3 136.2 7.3 12.7-1.3 19.5-63.6 19.5-63.6V180.5z"/><path d="M426.9 46.3v246c0 24.3-7.5 48.9-22.3 73.2-12.1 19.9-28.9 39.2-49.9 57.3-37 32-79 53.3-98.2 55.3l-1.3.1-1.3-.1c-19.2-2.1-61.3-23.3-98.2-55.3-21-18.1-37.7-37.4-49.9-57.3-14.8-24.2-22.3-48.9-22.3-73.2v-246s2.6-8.2 7.8-9.2c18.8-3.6 72.1-11.8 163.9-11.3 91.5.5 144.7 8.1 163.7 11.4 5.4.9 8 5.3 8 9.1zm-20.5 54.8c-19.9-3.1-76.7-8.7-151.2-9.1-72.2-.4-132 5.2-152.9 8.6l1.1 196.8c0 20.9 6.6 42.1 19.7 62.9 10.7 17.1 25.6 33.7 44.1 49.3 32.7 27.5 69.8 45.8 86.8 47.6l1.2.1 1.2-.1c17-1.8 54.2-20 86.8-47.6 18.5-15.6 33.4-32.2 44.1-49.3 13.1-20.8 19.7-42 19.7-62.9l-.6-196.3z"/></g><path d="M208.5 216.3v-1.5l3.4-.1 11.5-28.2h1.7l12.2 27.8 3.5-.1v1.5l-14 .2v-1.5l3.3-.1-4.1-9.3-8.6.1-3.9 9.4h3.2v1.5l-8.2.3zm13.1-21.4l-3.6 8.8 7.4-.1-3.8-8.7zm48.2 21.1l-25.5-.2v-1.5h3.6v-25.4h-3.6v-1.5l13.7.1v1.5h-3.6v25.4h5.9c.8 0 1.6-.1 2.4-.4s1.6-.7 2.3-1.3a7.77 7.77 0 0 0 1.9-2.4c.6-1 1-2.2 1.4-3.7l.1-.4h1.4v9.8zm31.8.7l-25.5-.6v-1.5l3.6.1v-25.4l-3.6-.1v-1.5l13.7.3v1.5l-3.6-.1v25.4l5.9.1c.8 0 1.6-.1 2.4-.3s1.6-.7 2.3-1.3a7.77 7.77 0 0 0 1.9-2.4c.6-1 1-2.2 1.4-3.6l.1-.4h1.4v9.8z" fill="#231f20"/><path d="M102.7 217.1v-1.4l14.8-1.3 8.1-.9 8.1-.9c2.5-.2 5.2-.2 8 .1s5.4.9 7.7 2c2.3 1 4.2 2.5 5.7 4.5s2.3 4.5 2.3 7.7c0 2.8-.7 5.3-2.2 7.3-1.5 2.1-3.2 3.8-5.3 5.2s-4.3 2.6-6.5 3.4c-2.3.9-4.2 1.5-5.7 1.8v.4c2.5 0 5.2.2 7.9.6s5.3 1.2 7.5 2.4c2.3 1.2 4.2 2.9 5.7 5 1.5 2.2 2.3 5 2.3 8.4 0 3.8-1 7-2.9 9.7s-4.3 4.8-7 6.5c-2.8 1.7-5.7 3-8.9 3.8-3.1.8-5.9 1.4-8.4 1.6-2.7.2-5.5.5-8.2.6l-8.2.6-14.8 1.3v-1.4l9-.8v-67.2l-9 1zm27.2 27.9c2.9-.3 5.3-.9 7-1.8s3-2.1 3.8-3.5 1.4-3 1.6-4.7a45.33 45.33 0 0 0 .3-5.2c0-2.9-.2-5.3-.6-7.4-.4-2-1-3.7-2-4.9-.9-1.3-2.2-2.1-3.8-2.7-1.6-.5-3.6-.7-6.1-.4l-2.2.3c-.7.1-1.4.3-2.2.4v30.4l4.2-.5zm1.7 37c2.1-.2 4-.6 5.6-1.2 1.7-.6 3.1-1.7 4.3-3.2s2.1-3.5 2.7-6 .9-5.8.9-9.8c0-1.1-.1-2.6-.3-4.4s-.7-3.7-1.6-5.4c-.9-1.8-2.2-3.2-4-4.4s-4.3-1.6-7.6-1.3l-5.7.5v35.5c1.8 0 3.7-.1 5.7-.3zm34.7-49.7v-1l10.4-.4 5.7-.3 5.7-.3c1.8-.1 3.7 0 5.7.3s3.8.8 5.5 1.7c1.6.8 3 2 4.1 3.4 1.1 1.5 1.6 3.4 1.6 5.6 0 1.8-.4 3.4-1.2 4.8s-1.9 2.5-3.2 3.3c-1.3.9-2.8 1.6-4.4 2.1s-3.2.9-4.7 1.1v.3l6 1c1.8.3 3.3.9 4.6 1.7s2.3 1.9 3.1 3.3 1.2 3.4 1.4 5.9l.6 6.9c.1 1.7.3 3.1.6 4 .3 1 .6 1.6 1 1.9s1.1.4 1.9.4c.9 0 1.7-.3 2.3-.9l1.6-1.5.7.6-1.3 1.3c-.4.4-.9.8-1.5 1.1s-1.3.5-2.1.7-1.9.3-3.1.4c-2.5.1-4.5-.2-5.9-1-1.4-.7-2.5-1.7-3.2-2.9s-1.1-2.4-1.3-3.8-.3-2.7-.3-3.9l-.4-5.5c-.2-1.8-.5-3.3-1.1-4.7s-1.5-2.4-2.7-3.2-2.9-1.1-5-1l-4.5.2v24.8l6.3-.3v1l-22.6.9v-1l6.3-.3v-47.1l-6.6.4zm19.2 20.5c2.1-.1 3.7-.4 4.9-1s2.1-1.4 2.7-2.3c.6-1 1-2 1.1-3.2.2-1.2.2-2.4.2-3.7 0-2-.1-3.7-.4-5.2-.3-1.4-.7-2.6-1.4-3.5-.6-.9-1.5-1.6-2.6-2s-2.6-.6-4.3-.5c-.5 0-1 .1-1.5.1-.5.1-1 .1-1.5.2V253l2.8-.2zm51.7-23.5v1l-6.3.1v47.1l6.3-.1v1l-22.6.3v-1l6.3-.1v-47.1l-6.3.1v-1l22.6-.3zm17.7.9c-1.7 0-3.2.1-4.5.5-1.3.3-2.5.9-3.6 1.8-1.1.8-2 2-2.8 3.5s-1.6 3.4-2.3 5.8h-.9v-12.6l43.1.4v12.6h-.9c-.7-2.3-1.4-4.3-2.3-5.8a13.23 13.23 0 0 0-2.8-3.6c-1.1-.9-2.2-1.5-3.6-1.8-1.3-.4-2.8-.5-4.5-.6h-2.5v47.1l6.3.1v1l-22.6-.2v-1l6.3.1v-47.1l-2.4-.2zm55.3.2v1l-6.3-.2v47.1l6.3.2v1l-22.6-.7v-1l6.3.2v-47.1l-6.3-.2v-1l22.6.7zm6.4 33.9c.1.6.3 1.3.5 2.2s.6 1.9 1 2.9c.4 1.1 1 2.1 1.6 3.3.7 1.1 1.5 2.2 2.4 3.1 1.1 1.1 2.1 2 3.1 2.6s1.9 1.1 2.8 1.4 1.7.5 2.5.5l2.2.2c2.4.1 4.4-.1 6-.8s2.8-1.5 3.7-2.6 1.5-2.2 1.9-3.4.6-2.3.6-3.2c0-1.7-.4-3.1-1.2-4.3-.8-1.1-1.9-2.1-3.2-2.9s-2.8-1.5-4.5-2.1l-5.2-1.8c-1.8-.6-3.5-1.3-5.2-2.1s-3.2-1.8-4.5-3-2.4-2.6-3.2-4.3-1.2-3.8-1.2-6.3c0-1.8.4-3.6 1.2-5.2.8-1.7 2-3.1 3.4-4.3 1.5-1.2 3.2-2.2 5.3-2.9 2-.7 4.2-1 6.6-.8 1.5.1 2.8.3 4 .6s2.2.7 3 1c.9.3 1.6.7 2.3 1s1.3.5 1.8.5c.6 0 1.1 0 1.3-.2s.4-.6.7-1.1l1.1.1v13.1h-.9l-1.8-4.8c-.6-1.6-1.4-3-2.4-4.4-1-1.3-2.2-2.4-3.6-3.3-1.5-.9-3.3-1.3-5.6-1.5-1.8-.1-3.4.1-4.8.5s-2.6 1-3.5 1.8c-1 .8-1.7 1.7-2.2 2.6-.5 1-.8 2-.8 3.1 0 1.6.4 3 1.3 4.1.8 1.1 2 2.1 3.3 2.9 1.4.8 2.9 1.6 4.7 2.2l5.4 2c1.9.7 3.7 1.4 5.4 2.3 1.8.8 3.3 1.8 4.7 3s2.5 2.6 3.3 4.2 1.3 3.6 1.3 5.8-.5 4.4-1.4 6.3c-.9 2-2.2 3.7-3.9 5.1s-3.7 2.5-6 3.3-4.9 1.1-7.7.9a30.34 30.34 0 0 1-4.2-.6c-1.4-.3-2.7-.7-3.9-1.1l-3.2-1c-.9-.3-1.6-.5-2.1-.5-.6 0-1.1 0-1.4.2s-.5.6-.8 1.2l-1.1-.1v-15.3l1.1-.1zm62.4-29.6v1l-6.3-.6v22.6l19.8 1.9V237l-6.3-.6v-1l22.5 2.2v1l-6.3-.6v47l6.3.6v1l-22.5-2.2v-1l6.3.6v-23.5l-19.8-1.9v23.5l6.3.6v1l-22.5-2.2v-1l6.3.6V234l-6.3-.6v-1l22.5 2.3z"/><path d="M102.6 335.8V334l5.1-.5v-36.8l-5.1.5v-1.8l15-1.5 9.2 25.9 9.4-27.7 14.7-1.4v1.8l-5.1.5v36.8l5.1-.4v1.7l-19.1 1.9v-1.8l5-.5V296L124 333.7l-1.6.2-12.9-35.4v34.9l5.1-.5v1.7zm62.2-4.8c-1.7 0-3.3-.3-4.8-.8-1.8-.7-3.4-1.6-4.8-2.8s-2.5-2.7-3.3-4.5c-.8-1.7-1.2-3.7-1.2-5.8 0-2.3.5-4.4 1.4-6.3s2.1-3.5 3.5-4.9a15.82 15.82 0 0 1 4.8-3.3c1.8-.8 3.5-1.3 5.2-1.4 1.8-.1 3.7.1 5.5.7s3.4 1.5 4.8 2.7 2.5 2.7 3.4 4.5 1.3 3.8 1.3 6.1c0 2-.4 3.9-1.2 5.8-.8 1.8-1.9 3.5-3.3 4.9s-3 2.6-4.7 3.5a14.2 14.2 0 0 1-5.7 1.5c-.3.1-.6.1-.9.1zm-6.9-7.6c.3 1.8.8 3.1 1.5 4.1s1.5 1.7 2.6 2c1 .4 2.3.5 3.7.4 1.9-.1 3.4-.6 4.5-1.3 1.1-.8 1.9-1.8 2.4-3.1s.9-2.8 1-4.5l.2-5.6-.2-5.2c-.1-1.6-.4-3.1-1-4.3-.5-1.2-1.4-2.2-2.5-2.8-1.1-.7-2.6-.9-4.5-.8-1.8.1-3.2.5-4.3 1.3-1.1.7-1.9 1.8-2.5 3-.6 1.3-.9 2.8-1.1 4.5s-.3 3.6-.3 5.6c0 2.7.2 4.9.5 6.7zm28.7 6v-1.5l3.6-.1v-25.5h-.9c-.9 0-1.7.2-2.4.4s-1.3.5-1.8 1-1 1.1-1.5 1.9c-.4.8-.9 1.9-1.2 3.2l-.1.3-1.4.1V301l25.3-1v8.1l-1.4.1-.1-.4c-.4-1.3-.8-2.3-1.2-3.1s-.9-1.4-1.5-1.8c-.5-.4-1.1-.7-1.8-.8-.7-.2-1.5-.2-2.4-.2h-.9v25.5l3.6-.1v1.5l-13.9.6zm34.4-.5c-1.9 0-3.7-.3-5.4-1a14.95 14.95 0 0 1-4.8-3 13.86 13.86 0 0 1-3.3-4.6c-.8-1.8-1.2-3.7-1.2-5.8 0-2.3.5-4.4 1.4-6.2s2.1-3.5 3.5-4.8 3.1-2.4 4.8-3.1c1.8-.7 3.5-1.1 5.3-1.2 1.8 0 3.7.3 5.5.9 1.8.7 3.4 1.6 4.8 2.9s2.5 2.8 3.4 4.6 1.3 3.9 1.3 6.2a13.88 13.88 0 0 1-1.2 5.7 15.82 15.82 0 0 1-8.1 8.1c-1.8.8-3.7 1.3-5.7 1.3h-.3zm-7.4-8c.3 1.8.8 3.2 1.5 4.2s1.5 1.7 2.6 2.1c1 .4 2.3.6 3.7.6 1.9 0 3.4-.4 4.5-1.1s1.9-1.7 2.4-3 .9-2.8 1-4.5l.2-5.6-.2-5.2c-.1-1.6-.4-3.1-1-4.3-.5-1.2-1.4-2.2-2.5-2.9s-2.6-1.1-4.6-1c-1.8 0-3.3.4-4.3 1.1-1.1.7-1.9 1.7-2.5 2.9-.6 1.3-.9 2.7-1.1 4.4s-.3 3.6-.3 5.6c.1 2.8.2 5 .6 6.7zm46.2 7.7c-1.5 0-2.7-.2-3.6-.7s-1.5-1.1-2-1.9c-.4-.7-.7-1.5-.8-2.4l-.2-2.3-.2-3.1c-.1-.9-.3-1.8-.6-2.5s-.7-1.2-1.3-1.6-1.4-.6-2.5-.6h-2.1v13h3.6v1.5h-13.7v-1.5h3.6V301h-3.6v-1.5h6.3l3.2-.1c2.1-.1 4.2-.2 6.5.3 1.2.2 2.3.6 3.2 1.1 1 .5 1.8 1.3 2.5 2.2s1 2.1 1 3.5c0 1.1-.3 2.1-.8 2.9s-1.2 1.5-2 2-1.6.9-2.6 1.1c-.2.1-.4.1-.6.1l1.3.3c1 .2 2 .6 2.7 1.1.8.5 1.4 1.2 1.9 2.1s.7 2.1.8 3.5l.3 3.9.3 2.2c.2.6.3.8.4.8.2.1.4.2.8.2a1.69 1.69 0 0 0 1-.3c.3-.3.6-.6.9-.8l.3-.3 1.1 1-.4.4c-.3.3-.5.5-.8.7s-.6.5-1 .6c-.4.2-.8.3-1.3.4-.3.2-.9.2-1.6.2zm-11.7-16.1c1.2 0 2.1-.2 2.8-.5s1.2-.7 1.5-1.3c.3-.5.5-1.1.6-1.8s.1-1.4.1-2.1c0-1.1-.1-2.1-.2-2.9s-.4-1.5-.8-2-.9-.9-1.5-1.2-1.4-.4-2.4-.4h-.9c-.3 0-.6.1-.9.1v12h1.7zm43.5 16.9h-.5c-1.2 0-2.3-.2-3.5-.4l-3.2-.8-2.6-.8c-.9-.3-1.3-.3-1.5-.4-.6 0-.7.1-.8.1s-.2.2-.4.8l-.1.3h-1.7V315h1.7l.1.4.4 1.7c.2.7.4 1.5.8 2.3.3.8.8 1.7 1.3 2.5s1.1 1.6 1.9 2.4 1.6 1.5 2.4 1.9 1.5.8 2.2 1 1.3.3 1.9.4c.6 0 1.2.1 1.8.1 1.9.1 3.4-.2 4.6-.7s2.1-1.2 2.8-2 1.2-1.7 1.4-2.6c.3-.9.4-1.7.4-2.4 0-1.3-.3-2.3-.9-3.1s-1.4-1.6-2.4-2.1c-1-.6-2.2-1.1-3.6-1.5l-4.2-1.3-4.3-1.6c-1.4-.6-2.7-1.4-3.8-2.4s-2-2.2-2.7-3.6-1-3.2-1-5.2c0-1.5.4-3 1-4.5.7-1.4 1.7-2.7 2.9-3.7 1.2-1.1 2.7-1.9 4.4-2.5s3.5-.9 5.5-.9c1.3 0 2.4.2 3.3.4s1.8.5 2.5.8l1.9.8c.5.2.9.3 1.3.3.5 0 .7-.1.7-.1.1-.1.2-.2.4-.7l.1-.3h1.7V300h-1.6l-.1-.3c-.4-1.3-.9-2.6-1.4-3.8s-1.1-2.3-1.8-3.3-1.7-1.8-2.8-2.4-2.5-.9-4.3-1c-1.4 0-2.7.1-3.7.5-1.1.4-2 .8-2.7 1.4s-1.3 1.3-1.6 2c-.4.7-.6 1.5-.6 2.3 0 1.2.3 2.1.9 2.9s1.5 1.5 2.5 2.1c1.1.6 2.3 1.2 3.7 1.6l4.4 1.5 4.4 1.7c1.5.6 2.8 1.4 3.9 2.4a11.59 11.59 0 0 1 2.8 3.4c.7 1.3 1.1 3 1.1 4.9s-.4 3.7-1.2 5.3c-.8 1.7-1.9 3.1-3.3 4.3s-3.1 2.2-5 2.9c-1.7.6-3.7 1-5.8 1zm47 1l-13.7-.6v-1.6l3.6.2v-12.3l-10.2-.4v12.2l3.5.2v1.5l-13.7-.6v-1.5l3.6.1v-25.5l-3.6-.1v-1.6l13.7.7v1.5l-3.5-.2v11.8l10.2.4v-11.7l-3.6-.2v-1.5l13.7.6v1.6l-3.5-.2v25.5l3.5.2zm16 1.6h-1a14.2 14.2 0 0 1-5.7-1.5c-1.8-.9-3.4-2-4.8-3.4s-2.5-3-3.3-4.9c-.8-1.8-1.2-3.8-1.2-5.9 0-2.3.5-4.3 1.4-6.1s2.1-3.3 3.5-4.5 3.1-2.1 4.8-2.7a14.11 14.11 0 0 1 5.3-.7c1.8.1 3.7.6 5.4 1.4a15.82 15.82 0 0 1 4.8 3.3c1.4 1.4 2.5 3 3.4 4.9s1.3 4 1.3 6.3c0 2-.4 3.9-1.2 5.6s-1.9 3.3-3.3 4.5c-1.4 1.3-3 2.2-4.8 2.9-1.3.5-2.9.8-4.6.8zm-8.7-8.6c.3 1.8.8 3.2 1.4 4.3.7 1.1 1.5 1.9 2.6 2.4 1 .5 2.3.8 3.7.9 1.9.1 3.4-.1 4.5-.8 1.1-.6 1.9-1.6 2.4-2.8s.9-2.7 1-4.4l.2-5.6-.2-5.2c-.1-1.6-.4-3.1-1-4.4-.5-1.3-1.4-2.3-2.5-3.2-1.1-.8-2.6-1.3-4.5-1.4-1.8-.1-3.2.1-4.3.7s-1.9 1.5-2.5 2.7-.9 2.6-1.1 4.3-.3 3.6-.3 5.6l.6 6.9zm49.7 12.7l-1.8-.2-6.1-18-6.1 16.8-1.8-.2-9.6-29-3.3-.4v-1.5l12.8 1.3v1.5l-2.6-.2 6.3 19.1 3.5-9.7-2.8-8.7-2.2-.3v-1.5l12.5 1.3v1.5l-3.4-.3 6.3 19.2 6.5-17.9-3.1-.3V307l8.1.8v1.6l-3.3-.4z" fill="#231f20"/><g fill="#606060"><path d="M119.9 55.1c0-.1.1-.2.1-.3.1-.1.1-.2.3-.2.1-.1.3-.1.5-.2s.5-.1.9-.2c.2 0 .4-.1.7-.1s.6-.1.9-.1c.3-.1.7-.1 1-.2s.6-.1.9-.2c0 .2.1.4.1.5 0 .3-.1.5-.3.6-.8.2-1.3.4-1.6.6s-.4.5-.4.8v.9l.1 2.8.2 5.1.3 8c0 .4.2.7.4.9.3.2.8.3 1.6.3.1 0 .2.1.2.1.1.1.1.2.1.3s0 .3-.1.5l-2.1.1c-.6 0-1.2.1-1.7.2-.2 0-.5.1-.8.1-.3.1-.7.1-1 .2-.4.1-.7.1-1.1.2-.3.1-.6.1-.9.2 0-.2-.1-.4-.1-.5 0-.3.1-.5.3-.6l1.8-.7c.3-.2.5-.5.5-.9v-1.2l-.1-2.7-.2-3.4-.2-3.5c-.1-1.1-.1-2-.1-2.8s-.1-1.3-.1-1.4l-7.1 18.1c-.1.2-.2.4-.2.5s-.2.2-.3.2h-.3l-7.9-17.4c0 .2 0 .8-.1 1.6l-.1 3-.2 3.7-.2 3.6c-.1 1.1-.1 2-.1 2.8v1.2c0 .7.7 1.1 2.2 1.1.2 0 .3.2.3.5 0 .1 0 .3-.1.5-.6 0-1.2.1-1.7.1-.6 0-1.1.1-1.5.1-.3 0-.8.1-1.4.2l-1.7.3c0-.2-.1-.4-.1-.5 0-.3.1-.5.3-.6.6-.2 1.1-.4 1.4-.6.4-.3.6-.6.6-1 0-.2 0-.7.1-1.7l.1-3.2.2-4 .2-3.9.1-3v-1.2c0-.3-.1-.6-.4-.7s-.8-.2-1.5-.3c-.2 0-.3-.2-.3-.5 0-.1 0-.3.1-.5.3 0 .6 0 1-.1.4 0 .7 0 1.1-.1.4 0 .7-.1 1-.1s.6-.1.8-.1c.4 0 .7-.1.9-.1s.4 0 .5.1c.1 0 .2.1.3.2s.1.2.1.2l6.9 15.4 6.9-17zm11.5 19.5c-.4 0-.7.1-1.1.1s-.7.1-1.1.2c-.3.1-.6.1-.8.1s-.4.1-.5.1v-.2-.3c0-.2.1-.4.3-.4.6-.2 1-.3 1.4-.5.3-.2.5-.5.5-.8V64c0-.7-.1-1.1-.3-1.4s-.7-.4-1.5-.4c-.3 0-.4-.2-.4-.4 0-.1 0-.3.1-.4.3 0 .7-.1 1.2-.2s.9-.2 1.3-.2c.5-.1 1-.3 1.3-.4.4-.1.7-.2.9-.2.3 0 .5.1.5.4s0 .7-.1 1.1-.1 1-.1 1.7v9c0 .3.2.6.5.7s.8.2 1.4.3c.2 0 .3.1.3.4v.3.2h-.4-.8c-.3 0-.7 0-1.1.1-.7-.1-1.1-.1-1.5 0zm-1.9-19.5c0-.5.2-1 .5-1.4.4-.4.8-.6 1.3-.7a1.48 1.48 0 0 1 1.3.4c.3.3.5.8.5 1.3 0 .6-.2 1-.5 1.4s-.8.6-1.3.6a1.48 1.48 0 0 1-1.3-.4c-.3-.2-.5-.6-.5-1.2zM150.3 71c0 .3.2.6.6.7l1.3.3c.2 0 .3.2.3.4 0 .1 0 .3-.1.5h-1.7c-.5 0-1.1 0-1.8.1-.6 0-1.2.1-1.7.2l-1.7.3c0-.2-.1-.4-.1-.5 0-.2.1-.4.3-.4.5-.1.9-.3 1.2-.5.4-.2.6-.5.6-.8v-6.4c0-.5 0-1-.1-1.5s-.2-.8-.4-1.2c-.2-.3-.4-.6-.7-.7-.3-.2-.7-.2-1.2-.2s-1.1.2-1.6.4-1 .5-1.4.9-.7.9-1 1.4c-.2.5-.4 1.1-.4 1.8v5.9c0 .3.2.6.6.7l1.2.3c.2 0 .3.2.3.4 0 .1 0 .3-.1.5H141c-.5 0-1.1 0-1.7.1s-1.2.1-1.8.2l-1.7.3c0-.2-.1-.4-.1-.5 0-.2.1-.4.3-.4.5-.1.9-.3 1.3-.5s.6-.5.6-.8v-8.9c0-.7-.1-1.1-.3-1.4s-.7-.4-1.5-.4c-.3 0-.4-.2-.4-.4 0-.1 0-.3.1-.4.3 0 .7-.1 1.2-.1l1.3-.2c.5-.1 1-.3 1.3-.4.4-.1.7-.2.9-.2.3 0 .5.1.5.5 0 .3 0 .7-.1 1.1s-.1 1-.1 1.7c.9-1.1 1.8-2 2.7-2.6s1.8-1 2.8-1.1c1.3-.1 2.3.2 3 .9s1 1.8 1 3.1V71zm6.7 1.4c-.4 0-.8.1-1.1.1-.4 0-.7.1-1.1.1-.3 0-.6.1-.8.1s-.4.1-.5.1v-.2-.3c0-.2.1-.4.3-.4.6-.1 1-.3 1.4-.5.3-.2.5-.4.5-.8v-8.9c0-.7-.1-1.1-.3-1.4s-.7-.4-1.5-.4c-.3 0-.4-.2-.4-.4 0-.1 0-.3.1-.4.3 0 .7-.1 1.2-.1l1.3-.2c.5-.1 1-.2 1.3-.4.4-.1.7-.2.9-.2.3 0 .5.1.5.5 0 .3 0 .7-.1 1.1s-.1 1-.1 1.7v9c0 .3.2.6.5.7s.8.2 1.4.3c.2 0 .3.2.3.4v.3.2h-.4-.8-1.1-1.5zm-1.9-19.5c0-.5.2-1 .5-1.4.4-.4.8-.6 1.4-.7.5 0 1 .1 1.3.5s.5.8.5 1.3c0 .6-.2 1-.5 1.4s-.8.6-1.3.6-1-.1-1.4-.4c-.3-.2-.5-.7-.5-1.3zm12.9 8.2c0-1.5.3-2.9.8-4.3s1.3-2.6 2.2-3.6 2-1.9 3.3-2.5c1.2-.7 2.5-1 3.9-1.1 1.9-.1 3.5.1 5 .6a9.52 9.52 0 0 1 3.5 2.2c.9 1 1.6 2.1 2.1 3.4s.7 2.7.7 4.1c0 1.7-.3 3.3-.8 4.7-.6 1.4-1.3 2.6-2.3 3.6s-2.2 1.8-3.5 2.3c-1.3.6-2.8.9-4.3 1s-3-.1-4.2-.6c-1.3-.5-2.4-1.1-3.3-2.1-.9-.9-1.6-2-2.2-3.4-.7-1.2-.9-2.7-.9-4.3zm11.2 8.8c1-.1 2-.3 2.8-.7s1.6-1 2.2-1.7 1.1-1.6 1.4-2.6.5-2 .5-3.2c0-1.6-.2-3-.5-4.3s-.8-2.5-1.5-3.4c-.7-1-1.5-1.7-2.5-2.2s-2.2-.7-3.5-.7c-.9 0-1.7.3-2.6.6-.8.4-1.5.9-2.2 1.6-.6.7-1.1 1.5-1.5 2.4-.4 1-.6 2-.6 3.3 0 1.6.2 3.1.5 4.5s.9 2.5 1.5 3.5c.7 1 1.5 1.7 2.5 2.2 1.1.5 2.2.8 3.5.7zm28-3.5l1-2.5c.3-.9.7-1.7 1-2.5l.7-2.1c.2-.6.3-1.2.3-1.6 0-.2-.1-.3-.3-.4s-.4-.2-.6-.2c-.2-.1-.4-.1-.6-.2s-.3-.2-.3-.4 0-.3.1-.4h2.7c.4 0 .8 0 1.2-.1.3 0 .7-.1 1.1-.1 0 .1.1.1.1.2v.2c0 .3-.1.4-.4.5-.2.1-.4.1-.6.2s-.3.1-.4.3c-.1.1-.2.3-.3.5s-.2.5-.3.8l-4.5 11.8c-.2 0-.3.1-.5.1s-.3 0-.4-.1-.2-.4-.4-.9l-3.7-8.8-3.8 10c-.2.1-.4.1-.6.1s-.4-.1-.6-.4c-.1-.3-.3-.6-.5-1l-4.2-10.1c-.1-.3-.3-.6-.4-.8a1.38 1.38 0 0 0-.3-.4.76.76 0 0 0-.4-.2c-.2 0-.4-.1-.6-.1-.3-.1-.4-.2-.4-.5 0-.2 0-.3.1-.4h1.4 1.5 1.1c.5 0 .9 0 1.3-.1.4 0 .8-.1 1.3-.1 0 .1.1.1.1.2v.2c0 .3-.1.4-.4.4-1 .2-1.5.4-1.5.8 0 .3.3 1.1.8 2.4l2.5 6.2 3.9-10.3c.1-.2.2-.4.4-.4.1 0 .2 0 .3.1l4.1 10.1zm21.1 1.3c0 .3.2.6.6.7.4.2.8.3 1.3.4.2 0 .3.2.3.4 0 .1 0 .3-.1.5-.6 0-1.1-.1-1.7-.1h-1.8c-.6 0-1.2 0-1.7.1-.6 0-1.1.1-1.7.1 0-.2-.1-.4-.1-.5 0-.2.1-.3.3-.4.5-.1.9-.2 1.2-.4.4-.2.6-.4.6-.7v-6.4c0-.5 0-1-.1-1.5s-.2-.8-.4-1.2c-.2-.3-.4-.6-.7-.8s-.7-.3-1.2-.3a4.53 4.53 0 0 0-1.6.3c-.5.2-1 .5-1.4.8a6.42 6.42 0 0 0-1 1.3c-.2.5-.4 1.1-.4 1.8v5.9c0 .3.2.6.6.7.4.2.8.3 1.2.4.2 0 .3.2.3.4 0 .1 0 .3-.1.5-.6 0-1.1-.1-1.7-.1h-1.7c-.6 0-1.2 0-1.8.1-.6 0-1.1.1-1.7.1 0-.2-.1-.4-.1-.5 0-.2.1-.3.3-.4.5-.1.9-.2 1.3-.4s.6-.4.6-.8V59c0-.7-.1-1.1-.3-1.4s-.7-.4-1.5-.5c-.3 0-.4-.2-.4-.4 0-.1 0-.3.1-.4.3 0 .7 0 1.2-.1.5 0 .9-.1 1.3-.1l1.4-.3c.4-.1.7-.2.9-.2a.47.47 0 0 1 .5.5c0 .3 0 .7-.1 1.1s-.1 1-.1 1.7c.9-1.1 1.8-1.9 2.7-2.5s1.8-.9 2.8-.9c1.3 0 2.3.3 3 1.1s1 1.8 1 3.2v7.9zm15.1-1.3c.2-.2.3-.2.5-.2s.4.2.6.6c-.3.4-.6.8-1 1.1a6.42 6.42 0 0 1-1.3 1c-.5.3-1.1.5-1.7.7-.7.2-1.4.3-2.3.3s-1.7-.1-2.5-.4-1.5-.7-2.1-1.3-1.1-1.3-1.4-2.2c-.4-.9-.5-1.9-.5-3.1a8.15 8.15 0 0 1 .6-3.1c.4-.9 1-1.7 1.6-2.4.7-.7 1.4-1.2 2.2-1.6s1.6-.6 2.4-.6c2 0 3.5.6 4.4 1.7s1.4 2.7 1.4 4.6c0 .1-.1.2-.2.2l-9.4.5c0 .8.1 1.6.4 2.3.2.7.6 1.3 1 1.9.4.5 1 .9 1.6 1.2s1.3.4 2.1.4c.7 0 1.4-.2 2-.5.6-.2 1.2-.6 1.6-1.1zm-5.3-10c-1.1 0-1.9.4-2.5 1.3s-.9 2-.9 3.3l6.1-.3c.3 0 .5-.1.5-.4 0-.4-.1-.8-.2-1.3s-.3-.9-.6-1.3-.6-.7-1-.9-.8-.4-1.4-.4zm17.2-1.1c.6 0 1.1.2 1.4.5s.5.6.5 1c0 .1 0 .3-.1.4 0 .1-.1.2-.3.3s-.4.3-.7.4-.7.4-1.2.6c-.2-.2-.4-.4-.7-.6s-.6-.3-.9-.3a1.69 1.69 0 0 0-1 .3c-.3.2-.6.5-.8.8-.2.4-.4.8-.5 1.2-.1.5-.2 1-.2 1.5V67c0 .5.3.8.8 1.1.5.2 1.2.4 2.2.5.2 0 .3.2.3.4 0 .1 0 .3-.1.5-.2 0-.5 0-.9-.1-.4 0-.7 0-1.1-.1-.4 0-.8 0-1.2-.1h-1.2-1.8c-.6 0-1.2.1-1.8.1 0-.2-.1-.4-.1-.5 0-.2.1-.3.3-.4.5-.1.9-.2 1.3-.4s.6-.4.6-.7V59c0-.5 0-.8-.1-1.1s-.1-.5-.3-.7c-.1-.2-.3-.3-.6-.4s-.6-.2-1-.2c-.3 0-.4-.2-.4-.4 0-.1 0-.3.1-.5h1.2c.5 0 .9-.1 1.3-.1l1.3-.3c.4-.1.6-.1.8-.1a.47.47 0 0 1 .5.5v2.2c.7-.8 1.4-1.4 2.1-1.9.6-.5 1.4-.7 2.3-.7zm10.5 4c-.2 0-.3 0-.4-.1s-.1-.2-.1-.2c-.2-.9-.5-1.5-1.1-1.9s-1.2-.6-2.1-.6c-.6 0-1.2.2-1.7.5-.5.4-.7.8-.7 1.5 0 .6.2 1 .7 1.4.4.4 1.3.8 2.4 1.1.6.2 1.2.4 1.7.7.5.2 1 .5 1.4.9.4.3.7.8.9 1.2.2.5.3 1.1.3 1.7s-.1 1.1-.3 1.6-.5 1-.9 1.4-1 .7-1.6.9-1.4.3-2.3.3c-.7 0-1.5-.1-2.3-.3s-1.6-.5-2.3-.9c0-.6-.1-1.2-.1-1.8v-1.9h.3c.2 0 .4 0 .6.1s.2.2.3.4c.1.9.4 1.7 1.1 2.2.6.6 1.5.8 2.6.9.9 0 1.6-.2 2.1-.6s.7-.9.7-1.6-.3-1.3-.8-1.7-1.3-.7-2.3-1c-1.3-.4-2.3-.9-3-1.6-.7-.6-1.1-1.6-1.1-2.8 0-.6.1-1.1.3-1.6s.5-.9.9-1.3.9-.7 1.4-.9c.6-.2 1.2-.3 1.9-.3.9 0 1.7.1 2.5.4.8.2 1.4.5 1.8.7 0 .2 0 .4.1.6v.8.8.7l-.9.3zm15.9-4c.8 0 1.5.2 2.1.4.6.3 1.1.7 1.5 1.2s.6 1.1.8 1.8.3 1.4.3 2.2c0 1.6-.2 2.9-.8 4.1-.5 1.2-1.1 2.1-1.9 2.9s-1.6 1.3-2.6 1.7-1.9.5-2.8.5c-.8 0-1.4-.1-1.9-.4-.5-.2-1-.6-1.3-1.1s-.6-1-.7-1.7-.2-1.4-.2-2.2c0-1.4.2-2.7.7-3.9s1.1-2.2 1.9-3 1.6-1.4 2.4-1.9c.9-.4 1.7-.6 2.5-.6zm-2.6 13.5c.7 0 1.3-.2 1.8-.6.6-.4 1-.9 1.4-1.6s.7-1.5.9-2.4.3-2 .3-3.1c0-1.4-.2-2.5-.5-3.3s-.9-1.2-1.7-1.2c-.7 0-1.4.2-1.9.7-.6.5-1 1.1-1.4 1.8a10.64 10.64 0 0 0-.9 2.5 13.33 13.33 0 0 0-.3 2.8c0 1.4.2 2.5.5 3.3.4.7 1 1.1 1.8 1.1zM290.4 57l-2.5-.1c.1-.7.3-1.1.7-1.1l2 .1.4-2.9c.2-.9.5-1.8.9-2.5.5-.8 1-1.4 1.6-1.9s1.3-.9 2-1.2 1.4-.4 2.1-.4c.5 0 1 .2 1.5.5-.2.3-.3.7-.4 1l-.3 1.2-.5.1c-.2-.3-.5-.6-.8-.8s-.7-.4-1.1-.4c-.3 0-.6.1-.8.2s-.5.4-.7.8-.4 1-.6 1.8l-.7 3.2-.2 1.3 3.5.1c-.2.5-.3 1-.3 1.5-.5-.1-1.1-.2-1.7-.2-.6-.1-1.1-.1-1.6-.1l-1.6 9.4-1 4.2c-.4 1.2-.8 2.2-1.3 3.1s-1 1.6-1.6 2.2a9.51 9.51 0 0 1-2 1.5c-.2.1-.5.2-.7.3s-.5.1-.8.1a3.08 3.08 0 0 1-1.3-.3l.3-1.3c.1-.5.2-.9.2-1.4l.5-.2c.2.3.5.6.8.8a1.69 1.69 0 0 0 1 .3c.7 0 1.3-.6 1.8-1.8s.9-3 1.3-5.4l1.9-11.7zm25.2 6l-7.3-.3-2.1 5.2c-.1.3-.2.5-.2.6 0 .5.7.8 2 1.1.2 0 .3.1.3.2.1.1.1.2.1.3s0 .3-.1.5c-.6-.1-1.2-.1-1.9-.2s-1.3-.1-1.9-.1h-1.3c-.5 0-.9 0-1.4.1 0-.2-.1-.4-.1-.5 0-.2 0-.3.1-.4s.2-.2.3-.2c.7-.1 1.2-.2 1.5-.3a1.21 1.21 0 0 0 .7-.7l7.9-18.6c.2-.4.4-.5.6-.5.1 0 .2 0 .4.1l7.9 19.8c.1.3.4.6.9.8s.9.3 1.3.4c.1 0 .2.1.3.2s.1.2.1.4c0 .1 0 .3-.1.5l-2.1-.2c-.7-.1-1.3-.1-1.9-.1h-2.1-2.1c0-.2-.1-.4-.1-.5 0-.2 0-.3.1-.4s.1-.1.2-.1l1.4-.3c.3-.1.5-.3.5-.6 0-.1 0-.3-.1-.5l-1.8-5.7zm-.5-1.3l-3-8.1-3.2 7.9 6.2.2z"/><path d="M338.2 61.1l.6-.6c.3-.3.7-.7 1.2-1 .5-.4 1.1-.7 1.7-1s1.3-.4 2.1-.4c1.3.1 2.2.5 2.8 1.3.5.8.8 1.9.8 3.3v7.9c0 .3.2.6.6.8s.8.3 1.3.5c.2.1.3.2.3.4 0 .1 0 .3-.1.5l-1.7-.2c-.5-.1-1.1-.1-1.8-.2-.6 0-1.2-.1-1.7-.1h-1.7c0-.2-.1-.4-.1-.5 0-.2.1-.3.3-.4.2 0 .4 0 .6-.1s.4-.1.6-.2.3-.2.4-.3a.76.76 0 0 0 .2-.4v-6.7c0-1.3-.2-2.3-.5-2.8s-.9-.8-1.6-.8c-.6 0-1.1 0-1.6.2s-1 .4-1.4.7-.7.8-.9 1.3-.4 1.1-.4 1.8V70c0 .3.2.6.6.8s.8.3 1.2.4c.2.1.3.2.3.4 0 .1 0 .3-.1.5l-1.6-.2c-.5-.1-1.1-.1-1.7-.1s-1.2-.1-1.7-.1h-1.7c0-.2-.1-.4-.1-.5 0-.2.1-.3.3-.4.4 0 .8-.1 1.2-.3.4-.1.6-.4.6-.7v-6.7c0-1.3-.2-2.3-.5-2.8s-.8-.8-1.6-.8c-.6 0-1.1 0-1.6.2s-1 .4-1.4.7-.7.8-1 1.3c-.2.5-.4 1.1-.4 1.8v5.9c0 .3.2.6.6.8s.8.3 1.2.4c.2.1.3.2.3.4 0 .1 0 .3-.1.5l-1.7-.2c-.5-.1-1.1-.1-1.7-.2-.6 0-1.2-.1-1.8-.1h-1.7c0-.2-.1-.4-.1-.5 0-.2.1-.3.3-.4l1.3-.3c.4-.1.6-.4.6-.7v-8.9c0-.7-.1-1.1-.3-1.4s-.7-.5-1.5-.6c-.3-.1-.4-.2-.4-.5 0-.1 0-.2.1-.4h1.2 1.3c.5-.1 1-.1 1.4-.2s.7-.1.9-.1a.47.47 0 0 1 .5.5c0 .3 0 .7-.1 1.1s-.1 1-.1 1.7c.1-.1.2-.3.6-.6.3-.3.7-.7 1.2-1 .5-.4 1-.7 1.7-1 .6-.3 1.3-.4 2.1-.4 1.1.1 2 .4 2.5 1 .4.9.7 1.7.9 2.8zm24.2 9.5c.2-.1.3-.2.5-.2s.4.2.6.6c-.3.4-.6.7-1 1.1l-1.3.9c-.5.3-1.1.4-1.7.6-.7.1-1.4.2-2.2.1-.9-.1-1.7-.3-2.5-.6s-1.5-.8-2.1-1.5c-.6-.6-1.1-1.4-1.4-2.3-.4-.9-.5-1.9-.5-3.1 0-1.1.2-2.1.6-3s1-1.7 1.6-2.3c.7-.6 1.4-1.1 2.2-1.4s1.6-.4 2.4-.4c2 .2 3.5.9 4.4 2.1s1.4 2.8 1.4 4.7c0 .1-.1.2-.2.2l-9.4-.3c0 .8.1 1.6.4 2.4.2.7.6 1.4 1 1.9.4.6 1 1 1.6 1.3s1.3.5 2.1.6c.7.1 1.4-.1 2-.3.5-.3 1-.6 1.5-1.1zm-5.3-10.4c-1.1-.1-1.9.3-2.5 1.1s-.9 1.9-.9 3.3l6.1.2c.3 0 .5-.1.5-.4 0-.4-.1-.9-.2-1.3-.1-.5-.3-.9-.6-1.3a4.74 4.74 0 0 0-1-1c-.4-.3-.9-.5-1.4-.6zm17.1.4c.6.1 1.1.3 1.4.6s.5.7.5 1.1c0 .1 0 .2-.1.4 0 .1-.1.2-.3.3s-.4.2-.7.4c-.3.1-.7.3-1.2.5-.2-.3-.4-.5-.7-.7s-.6-.3-.9-.3c-.4 0-.7 0-1 .2s-.6.4-.8.8c-.2.3-.4.7-.5 1.2s-.2.9-.2 1.4v5.6c0 .5.2.9.7 1.1.5.3 1.2.5 2.1.7.2.1.3.2.3.4 0 .1 0 .3-.1.5-.2 0-.5-.1-.9-.1s-.7-.1-1.1-.1c-.4-.1-.8-.1-1.2-.2-.4 0-.8-.1-1.1-.1-.6-.1-1.2-.1-1.8-.1h-1.8c0-.2-.1-.4-.1-.5 0-.2.1-.3.3-.4.5 0 .9-.1 1.3-.3.4-.1.6-.4.6-.7V64c0-.5 0-.8-.1-1.1s-.1-.6-.3-.8c-.1-.2-.3-.3-.6-.5l-1-.3c-.3-.1-.4-.2-.4-.5 0-.1 0-.3.1-.5.3 0 .7 0 1.2.1h1.3c.5 0 .9-.1 1.3-.2s.6-.1.8-.1a.47.47 0 0 1 .5.5v2.2c.7-.7 1.4-1.3 2.1-1.7s1.5-.6 2.4-.5zm5.7 14.6c-.4 0-.8-.1-1.1-.1-.4 0-.7 0-1.1-.1h-.8-.5v-.2-.3c0-.2.1-.3.3-.4.6-.1 1-.1 1.4-.3.3-.1.5-.4.5-.7v-8.9c0-.7-.1-1.1-.3-1.4s-.7-.5-1.5-.7c-.3-.1-.4-.2-.4-.5 0-.1 0-.2.1-.4.3 0 .7.1 1.2.1h1.3c.5 0 1-.1 1.3-.1.4-.1.7-.1.9-.1a.47.47 0 0 1 .5.5c0 .3 0 .7-.1 1.1s-.1 1-.1 1.7v9c0 .3.2.6.5.8s.8.4 1.4.5c.2.1.3.2.3.4v.3.2c-.1 0-.2 0-.4-.1-.2 0-.5-.1-.8-.1-.3-.1-.7-.1-1.1-.2-.8.1-1.1.1-1.5 0zM378 55.4c0-.5.2-1 .5-1.3.4-.3.8-.5 1.3-.4s1 .3 1.3.7.5.9.5 1.4c0 .6-.2 1-.5 1.3s-.8.4-1.3.4c-.5-.1-1-.3-1.3-.7-.3-.3-.5-.8-.5-1.4zm12.9 8.1c-1-.1-1.8.2-2.5 1.1-.6.8-1 2-1 3.5 0 2.1.5 3.8 1.4 5.1s2.2 2 3.7 2.2a4.42 4.42 0 0 0 1.7-.1c.5-.2.9-.3 1.2-.5.1 0 .1-.1.2-.1s.2-.1.3-.1.2.1.4.3c.1.2.2.3.3.4-.2.2-.5.5-.8.7s-.7.4-1.2.6-1 .3-1.6.4-1.3.1-2.1 0c-.9-.1-1.7-.3-2.5-.7s-1.5-.9-2.1-1.6-1.1-1.4-1.4-2.4a10.07 10.07 0 0 1-.5-3.1c0-1.1.2-2.1.6-3s1-1.6 1.6-2.2 1.4-1 2.2-1.3 1.6-.4 2.4-.3 1.5.3 2.2.5c.6.2 1.2.5 1.7.9.5.3.8.7 1.1 1.1.2.4.4.8.4 1.2 0 .1-.1.2-.3.3s-.5.1-.7.1h-.8-.4c-.3 0-.5-.2-.7-.5s-.3-.6-.5-.9-.5-.7-.8-1c-.4-.3-.9-.5-1.5-.6zm20.4 14.6c.2 0 .4.3.4.7-.6.3-1.3.4-2.1.3-.5-.1-.9-.2-1.2-.4-.4-.2-.6-.4-.9-.7l-.6-.9-.3-1c-.5.9-1.2 1.5-1.9 1.7-.7.3-1.6.3-2.6.2l-1.4-.3c-.5-.1-.9-.4-1.4-.7-.4-.3-.8-.7-1.1-1.2s-.4-1.1-.4-1.8c0-.8.2-1.5.6-2s.9-.9 1.5-1.2 1.2-.5 1.9-.6l2-.3c.4 0 .7 0 1-.1.3 0 .6-.1.8-.1.3 0 .5-.1.6-.3.1-.1.1-.4.1-.9 0-1-.2-1.9-.6-2.6s-1.1-1.1-2.1-1.3h-.9c-.3.1-.5.2-.6.3-.2.2-.3.4-.5.7-.1.3-.3.6-.4 1-.1.2-.2.4-.4.5s-.6.2-1.1.2c-.1 0-.3 0-.5.1h-.5c-.2 0-.3-.3-.3-.7 0-.5.2-.9.6-1.4.4-.4.8-.8 1.4-1.1s1.2-.5 1.9-.6 1.3-.2 1.9-.1c.8.1 1.4.3 2 .5s1.1.5 1.6.9c.4.4.8.9 1 1.5s.3 1.4.3 2.3v5.6c0 .8 0 1.3.1 1.7.1.3.1.6.2.8.2.3.3.5.5.7.2.1.4.2.6.2h.5c.1.4.2.4.3.4zm-5-7h-1c-.6 0-1.1.1-1.6.2s-1 .2-1.4.4-.7.5-1 .9-.4.9-.4 1.5c0 .8.2 1.5.6 2s.9.8 1.6.9c.4.1.8 0 1.2-.1s.7-.3 1-.6.5-.7.7-1.1.3-.9.3-1.5v-2.6z"/></g></svg>