<?xml version="1.0" encoding="UTF-8"?>
<svg enable-background="new 0 0 612 612" version="1.0" viewBox="0 0 612 612" xml:space="preserve" xmlns="http://www.w3.org/2000/svg" xmlns:xlink="http://www.w3.org/1999/xlink">
<style type="text/css">
	.st0{fill:#231F20;}
	.st1{fill:#FFFFFF;}
	.st2{clip-path:url(#c);}
	.st3{fill:#EC1C24;}
	.st4{fill:#1C439B;}
	.st5{clip-path:url(#a);fill:#EC1C24;}
</style>
<circle class="st0" cx="305.8" cy="306.4" r="298.7"/>
<circle class="st1" cx="305.8" cy="306.4" r="199.8"/>

	
		<defs>
			<circle id="d" cx="305.8" cy="306.4" r="189.8"/>
		</defs>
		<clipPath id="c">
			<use xlink:href="#d"/>
		</clipPath>
		<g class="st2">
			
				<polygon class="st3" points="157 152.3 457.7 459.5 311.9 517.6 146.6 477.6 88.6 284"/>
				<rect class="st1" x="105.3" y="150.2" width="26.8" height="379.6"/>
				<rect class="st1" x="164.1" y="150.2" width="26.8" height="379.6"/>
				<rect class="st1" x="223" y="150.2" width="26.8" height="379.6"/>
				<rect class="st1" x="281.9" y="150.2" width="26.8" height="379.6"/>
				<rect class="st1" x="340.7" y="150.2" width="26.8" height="379.6"/>
				<rect class="st1" x="399.6" y="150.2" width="26.8" height="379.6"/>
			
			<polygon class="st4" points="146.7 147.3 480.6 482.6 551.9 255.8 427.8 84.5 230.9 70.2"/>
		</g>
	
	
		
			<path class="st1" d="m198.5 283.9c-0.1 0.2-0.1 0.4-0.2 0.5-0.2 0.3-0.5 0.6-0.7 1-6.3 8.3-11 17.5-12.2 28.1-0.9 7.4-1.6 14.8-1.8 22.2-0.3 12.3-0.1 24.7 0 37 0 1.4-0.2 2.4-1.2 3.4-2.8 2.9-2.4 6.2 0.7 8.8 0.6 0.5 1 1.6 1 2.4 0 3.7-0.2 7.4-0.2 11.2 0 3.7-0.7 7.4-0.4 11.1 0.6 5.7 3.8 9.4 9.4 10.1 4.5 0.6 9.1 0.8 13.6 0.3 7.6-0.8 9.9-3.8 9.7-11.5-0.1-4.3 0.2-8.7-0.1-13-0.1-2.4-0.1-4.7-0.2-7.3 1.1 0.5 1.9 1 2.8 1.3l9.6 3.3c1.2 0.4 2.4 0.6 3.5 1.2 2.6 1.5 5.5 2.2 8.1 0.8 2.7-1.4 5.4-1.3 8.2-1.3 2.7 0 5.4 0.1 8.1 0.1 20.2 0.1 40.4 0.3 60.6 0.3 19 0 37.9-0.2 56.9-0.4 1.8 0 3.1 0.3 4.5 1.5 2.7 2.2 5.6 2.2 7.9 0 3.2-3.1 7.7-2.6 11.4-5 0 1.4 0 2.2 0.1 3 0.1 5.7 0.1 11.5 0.4 17.2 0.3 5.9 2.6 8.8 8.4 9.5 3.9 0.5 7.9 0.7 11.7 0.2 7.2-0.8 10-3.5 11.2-9.4 0.3-1.3 0.5-2.7 0.5-4.1 0.2-7 0.2-13.9 0.4-20.9 0-0.7 0.5-1.7 1-2.1 2.4-2.1 3.3-4.8 1.2-7.3-2.3-2.7-2.5-5.4-1.9-8.5 0.2-1.2 0.3-2.5 0.3-3.7 0.6-12.5 0.6-25.1-0.2-37.6-0.7-11.2-3.4-21.7-9.6-31.2-2.4-3.7-4.9-7.4-7.5-11.1 0.7-0.9 1.6-1.8 2.3-2.8 1-1.4 2.2-1.9 3.9-2 4.3-0.3 8.6-1 12.9-1.5 1.9-0.2 3-1.4 3-3.3 0.1-3.1 0.1-6.3-0.2-9.5-0.2-2.5-1.2-3.2-3.7-3.2-6.3-0.1-12.2 1.6-18 3.8-1.5 0.6-2.3 1.7-2 3.3 0.3 1.9 0.3 4 1.1 5.7 1.1 2.5 0 3.6-1.8 4.8-4.6-18.5-9.1-36.9-13.6-55.3-0.5-2.2-1.4-4.1-3.4-5.2-3.1-1.7-6.1-3.6-9.4-4.9-12.1-4.7-24.9-6.5-37.7-7.8-22.3-2.3-44.5-2.2-66.8-1.5-13 0.4-24.5 1.4-37.3 3.9-6.9 1.3-13.7 2.9-19.9 6.3-2.9 1.6-5.7 3.3-6.6 6.9-3.7 15.1-8.9 30.2-12.7 45.2-1 4.1-2.1 8.2-3.1 12.4-1-1-1.8-1.7-2.2-2 0.5-3.2 0.9-5.9 1.2-8.6 0.2-1.4-0.5-2.4-1.8-2.9-6.1-2.3-12.2-4-18.7-4-2 0-3.3 0.9-3.3 2.8-0.1 3.4 0 6.8 0.3 10.3 0.1 1.7 1.2 2.7 3 2.9 4.7 0.5 9.3 1 14 1.6 0.7 0.1 1.5 0.3 2 0.7 1.3 1.2 2.4 2.5 3.5 3.8z"/>
			<path d="m198.5 283.9c-1.1-1.3-2.2-2.6-3.4-3.8-0.5-0.5-1.3-0.7-2-0.7-4.6-0.6-9.3-1.1-14-1.6-1.8-0.2-2.9-1.2-3-2.9-0.2-3.4-0.3-6.8-0.3-10.3 0-1.9 1.4-2.8 3.3-2.8 6.5 0 12.7 1.7 18.7 4 1.3 0.5 2 1.6 1.8 2.9-0.3 2.7-0.8 5.4-1.2 8.6 0.4 0.3 1.1 1.1 2.2 2 1.1-4.3 2.1-8.3 3.1-12.4 3.8-15.1 9-30.2 12.7-45.2 0.9-3.6 3.7-5.3 6.6-6.9 6.2-3.3 13-5 19.9-6.3 12.8-2.4 24.3-3.5 37.3-3.9 22.3-0.7 44.5-0.7 66.8 1.5 12.8 1.3 25.5 3.1 37.7 7.8 3.3 1.3 6.3 3.2 9.4 4.9 2 1.1 2.8 3 3.4 5.2 4.5 18.4 9 36.8 13.6 55.3 1.9-1.2 3-2.3 1.8-4.8-0.8-1.7-0.8-3.8-1.1-5.7-0.3-1.7 0.5-2.8 2-3.3 5.8-2.1 11.7-3.9 18-3.8 2.6 0 3.5 0.7 3.7 3.2 0.3 3.1 0.2 6.3 0.2 9.5 0 1.9-1.1 3-3 3.3-4.3 0.5-8.6 1.2-12.9 1.5-1.8 0.1-3 0.6-3.9 2-0.7 1-1.5 1.9-2.3 2.8 2.5 3.8 5 7.4 7.5 11.1 6.2 9.5 8.8 20 9.6 31.2 0.8 12.6 0.8 25.1 0.2 37.6-0.1 1.2-0.1 2.5-0.3 3.7-0.6 3.1-0.4 5.7 1.9 8.5 2.1 2.5 1.2 5.2-1.2 7.3-0.6 0.5-1 1.4-1 2.1-0.2 7-0.3 13.9-0.4 20.9 0 1.4-0.2 2.7-0.5 4.1-1.2 5.9-4.1 8.6-11.2 9.4-3.8 0.4-7.9 0.3-11.7-0.2-5.8-0.8-8.1-3.6-8.4-9.5-0.2-5.7-0.3-11.5-0.4-17.2 0-0.8 0-1.6-0.1-3-3.7 2.4-8.2 1.9-11.4 5-2.3 2.2-5.2 2.2-7.9 0-1.4-1.1-2.7-1.5-4.5-1.5-19 0.2-37.9 0.4-56.9 0.4-20.2 0-40.4-0.2-60.6-0.3-2.7 0-5.4-0.1-8.1-0.1-2.8 0-5.5-0.1-8.2 1.3-2.6 1.4-5.5 0.6-8.1-0.8-1.1-0.6-2.3-0.8-3.5-1.2l-9.6-3.3c-0.9-0.3-1.7-0.8-2.8-1.3 0.1 2.6 0 5 0.2 7.3 0.3 4.3 0 8.7 0.1 13 0.2 7.6-2.2 10.7-9.7 11.5-4.5 0.5-9.1 0.3-13.6-0.3-5.6-0.7-8.8-4.4-9.4-10.1-0.4-3.7 0.4-7.4 0.4-11.1s0.2-7.4 0.2-11.2c0-0.8-0.4-1.9-1-2.4-3.1-2.5-3.5-5.9-0.7-8.8 1-1 1.2-2 1.2-3.4-0.1-12.3-0.3-24.7 0-37 0.2-7.4 0.9-14.8 1.8-22.2 1.2-10.6 5.9-19.7 12.2-28.1 0.2-0.3 0.5-0.6 0.7-1 0-0.1 0-0.3 0.1-0.5zm221.4 80.6c-0.3-2.7-2.2-2.4-3.8-2.5-7.1-0.1-14.2-0.3-21.3-0.3-2.2 0-3.2-0.9-3.6-3.1-1.1-5-2.4-9.9-3.6-14.9-1-3.9-3.2-7.1-6.4-9.5-8.8-6.9-19-10.2-29.8-11-7.3-0.5-14.6-0.2-21.9-0.1-19.2 0-38.5 0.1-57.7 0.2-11 0.1-21.4 2.8-30.8 8.3-5.4 3.1-10 7.1-12.1 13.1-1.6 4.6-2.9 9.2-4.1 13.9-0.9 3.5-0.9 3.9-4.5 4-7.3 0.3-14.6 0.5-21.9 0.7-1.8 0-3.4 0.2-4.4 2.7-1.8-4.6-3.8-8.6-4.9-12.7-1-3.7-0.9-7.7-1.2-11.5-0.3-2.5-0.5-5-0.8-7.5-0.6 0.6-0.8 1.2-0.8 1.8-0.1 6.1-0.4 12.2-0.3 18.4 0.1 5.1 1.9 9.8 5.5 13.6 1.6 1.7 2.5 3.4 2 5.9-0.3 1.5-0.7 1.9-2.1 1.9-1.6 0-3.2 0.1-4.7 0.4-2.1 0.4-3.4 1.8-3.5 3.5 0 1.7 1.5 3.7 3.3 4.1 1.3 0.3 2.6 0.4 3.9 0.4 11.9 0 23.9-0.1 35.8-0.2 1.7 0 3.7-0.6 4.8 0.1s1.3 2.9 1.9 4.4c0.1 0.2 0.1 0.4 0.2 0.6 1 2.4 2.4 3.5 4.6 3.5 2.1-0.1 3.3-1.2 3.9-3.8 0.4-1.6 0.5-3.2 0.8-4.9h1.8c18.8-0.1 37.6-0.3 56.5-0.3 24.2 0 48.4 0.1 72.6 0.2 4.2 0 4.2 0.1 4.7 4.4 0.1 0.7 0.2 1.4 0.3 2 0.4 2.3 1.5 3.1 4.1 3.2 2.4 0 3.3-0.6 3.7-2.8 0.3-1.5 0.6-3.1 0.8-4.7 0.2-1.5 0.9-2.1 2.5-2 4 0.1 8 0.1 12 0 8.3-0.1 16.7-0.2 25-0.4 2.9-0.1 4.8-2.2 4.7-4.9-0.1-2.6-1.8-4-5-4h-5.3c-0.3-2.3 0-3.9 1.5-5.5 3.2-3.5 5.6-7.5 5.7-12.4 0.1-5.7-0.2-11.4-0.5-17.1-0.1-1.8-0.5-3.6-0.8-5.3h-0.8c-0.2 3.3-0.5 6.7-0.5 10-0.4 6.9-1.4 13.6-5.5 20.1zm-191.1-84.2v0.3c0.3 0.4 0.7 0.7 1 1 4.7 4.4 9.1 9.2 11.6 15.2 1.5 3.6 2.3 7.5 3.5 11.3 1.5 4.8 2.7 5.7 7.6 5.4 10.7-0.6 21.4-1.6 32.1-1.9 11.8-0.4 23.7-0.5 35.5-0.4 6.7 0.1 13.5 0.8 20.2 1.3 8.4 0.6 16.8 1.3 25.2 1.9 0.6 0 1.5-0.1 1.9-0.5 1.3-1.6 2.6-3.2 3.4-5 1.4-3.2 2.2-6.8 3.7-10 3.3-6.9 6.3-14.1 13-19.3-53.2-8.8-106-9.4-158.7 0.7zm170.9-16.5h-0.1c0-1.6 0.2-3.2-0.1-4.7-2.7-10.2-5.5-20.3-8.2-30.4-1-3.6-3.3-5.9-6.7-6.8-3.7-1-7.6-2-11.4-2-44.1-0.2-86.9-0.2-131-0.1-4.1 0-8.3 1-12.3 2-3.9 0.9-6.7 3.5-7.7 7.5-1.9 7.4-5.2 14.8-6.7 22.4-0.9 4.5-1.4 9.2-1.5 13.9-0.1 4.8 2.4 6.7 7.2 6.4 2.6-0.2 5.2-0.6 7.7-1.1 13.8-2.7 27.8-4.2 41.9-5.1 18.7-1.2 37.5-1.2 56.2-0.6 17 0.6 33.9 1.9 50.7 4.6 5.2 0.9 10.5 2 15.7 2.5 4.8 0.5 6.5-1.5 6.4-6.3-0.1-0.8-0.1-1.5-0.1-2.2zm-16.9-47.4c-0.8-0.3-1-0.4-1.2-0.5-7.9-3.2-16.2-4.8-24.5-6-14.1-2.1-28.3-3-42.5-3.2-24.4-0.4-47.4 0-71.4 4.5-6 1.1-12 2.5-18.2 5.3 53.3-0.1 104.5-0.1 157.8-0.1zm33.4 80.3c-0.6-3.5-2.5-5.9-5-7.8-5-3.9-10.9-5.6-17-6.6-1.1-0.2-2.5 0.3-3.4 1-6 4.3-10.5 9.9-13.7 16.5-2.2 4.4-3.5 9.1-3.5 14.2 1.6-3.1 3-6.3 4.9-9.2 7.3-11.5 18.9-15.1 31.7-10.2 1.9 0.7 3.8 1.3 6 2.1zm-174.2 15.8c-0.2-1.2-0.2-2.5-0.5-3.7-2.1-10.7-8.4-18.7-16.4-25.6-2.1-1.8-4.1-2.5-6.8-1.8-6 1.5-11.9 3.2-16.4 7.9-1.6 1.7-2.9 3.5-3 6.2 2.3-0.8 4.4-1.4 6.4-2.3 7.9-3.6 15.5-2.8 22.8 1.9 6.6 4.2 10.6 10.4 13.9 17.4zm139.8 3.7c0.2 11.2 9.2 19.9 20.3 19.9 10.9 0 19.7-8.9 19.4-19.9-0.2-10.9-9.5-19.9-20.5-19.9-10.7 0-19.4 9.1-19.2 19.9zm-166.1 19.8c11 0 19.7-8.8 19.5-19.7-0.2-10.8-9.5-19.9-20.3-19.9s-19.7 9-19.5 19.7c0.2 11.1 9.1 19.9 20.3 19.9zm180.5 17.4c0.1 3.4 2.9 6.1 6.3 6.1s6.2-2.9 6.1-6.3-2.9-6.1-6.4-6.1-6.1 2.7-6 6.3zm-174.3-0.8c-0.1-3.3-2.8-6-6.1-6.1-3.1-0.1-6 2.8-6 6s2.9 6.1 6.2 6.1c3.2 0 6-2.8 5.9-6z"/>
			<path class="st1" d="m419.9 364.5c4.2-6.5 5.2-13.2 5.2-20.3 0-3.3 0.3-6.7 0.5-10h0.8c0.3 1.8 0.8 3.6 0.8 5.3 0.3 5.7 0.5 11.4 0.5 17.1-0.1 4.9-2.5 8.9-5.7 12.4-1.5 1.6-1.7 3.3-1.5 5.5h5.3c3.2 0 4.9 1.4 5 4 0.1 2.7-1.7 4.8-4.7 4.9-8.3 0.2-16.7 0.3-25 0.4-4 0.1-8 0.1-12 0-1.6 0-2.3 0.6-2.5 2-0.2 1.6-0.5 3.1-0.8 4.7-0.4 2.2-1.3 2.9-3.7 2.8-2.6 0-3.7-0.9-4.1-3.2-0.1-0.7-0.3-1.4-0.3-2-0.4-4.3-0.4-4.3-4.7-4.4-24.2-0.1-48.4-0.2-72.6-0.2-18.8 0-37.7 0.2-56.5 0.3h-1.8c-0.3 1.7-0.5 3.3-0.8 4.9-0.6 2.6-1.8 3.8-3.9 3.8-2.2 0.1-3.7-1-4.6-3.5-0.1-0.2-0.1-0.4-0.2-0.6-0.6-1.5-0.8-3.7-1.9-4.4-1.2-0.8-3.2-0.2-4.8-0.1-11.9 0.1-23.9 0.1-35.8 0.2-1.3 0-2.6-0.1-3.9-0.4-1.8-0.5-3.3-2.5-3.3-4.1 0-1.7 1.3-3.1 3.5-3.5 1.5-0.3 3.1-0.4 4.7-0.4 1.4 0 1.8-0.3 2.1-1.9 0.5-2.5-0.4-4.2-2-5.9-3.6-3.8-5.4-8.5-5.5-13.6-0.1-6.1 0.2-12.2 0.3-18.4 0-0.6 0.2-1.2 0.8-1.8 0.3 2.5 0.6 5 0.8 7.5 0.4 3.8 0.3 7.8 1.2 11.5 1.1 4.2 3.1 8.1 4.9 12.7 1-2.5 2.6-2.7 4.4-2.7 7.3-0.2 14.6-0.4 21.9-0.7 3.6-0.1 3.6-0.5 4.5-4 1.2-4.7 2.5-9.4 4.1-13.9 2.1-6.1 6.7-10 12.1-13.1 9.5-5.5 19.8-8.2 30.8-8.3 19.2-0.1 38.5-0.2 57.7-0.2 7.3 0 14.6-0.4 21.9 0.1 10.8 0.8 21 4.1 29.8 11 3.2 2.5 5.4 5.6 6.4 9.5 1.2 5 2.5 9.9 3.6 14.9 0.5 2.1 1.4 3.1 3.6 3.1 7.1 0 14.2 0.1 21.3 0.3 1.9 0.2 3.7 0 4.1 2.7zm-222.8 10.9h3.3c9.5 0.2 19 0.3 28.6 0.5 3 0.1 3 0.1 3.4-2.9 0.2-1.6 0.3-3.2 0.5-4.7 0.4-2.8 1.5-3.5 4.8-3.3 2.2 0.2 3.3 1.4 3.3 3.9 0 2-0.1 4-0.2 6-0.1 1.2 0.3 1.8 1.6 1.8 2.6 0 5.1 0.2 7.7 0.2 15.5 0 31 0.1 46.6 0 22.5-0.1 45-0.2 67.5-0.3 3.8 0 7.6-0.1 11.4-0.1 1.8 0 2.6-0.6 2.5-2.5-0.1-1.6-0.1-3.3-0.1-5 0-2.2 0.8-2.8 3.4-3.1 2.5-0.2 3.9 0.6 4.3 2.6 0.4 1.7 0.7 3.4 1 5.1 0.3 1.4 1 2.2 2.5 2 2.1-0.2 4.3-0.2 6.4-0.2h20.1c-0.1-2.5-0.2-4.6-0.1-6.7 0.1-1.7-0.5-2.3-2.2-2.2-7.5 0.1-15 0-22.6 0.1-1.3 0-2.2-0.3-3.2-1.3-4-4.2-9.9-3.6-12.6 1.3h-31-97.9c-1.1 0-2 0.1-2.8-1.1-3.4-4.8-9-4.7-12.4-0.1-0.6 0.7-1.7 1.4-2.6 1.5-3.4 0.3-6.9 0.4-10.3 0.6-6.1 0.3-12.1 0.6-18.1 1-0.7 0-1.7 0.6-1.8 1.1-0.8 1.8-0.9 3.8-1 5.8zm118.1-37.7c0.7-1.7 1.8-2.1 3.4-2.1 19 0 37.9 0 56.9-0.1 1 0 1.9-0.2 2.9-0.3 0-0.2 0.1-0.4 0.1-0.6-1.9-1.6-3.8-3.1-6.4-3.3-3.2-0.2-6.5-0.2-9.7-0.2-14.7-0.1-29.4-0.1-44.1-0.1-1.4 0-2.5-0.3-3-1.9h50.6c0-0.2 0.1-0.4 0.1-0.5-1.1-0.4-2.3-0.9-3.4-1.3-5.9-2.2-12-2.4-18.2-2.4-22.3 0-44.6-0.1-66.9-0.1-7.1 0-14.2-0.2-20.9 2.5-1.2 0.5-2.5 0.9-3.8 1.4 0.1 0.2 0.1 0.4 0.2 0.6h49.1c-1.2 1.8-1.2 1.8-3 1.8-17.2 0.1-34.3 0.2-51.5 0.3-3.1 0-5 1.9-7.6 3.9 1.2 0.1 1.7 0.2 2.2 0.2 3.5 0 7 0.1 10.6 0.1h45.5c1.7 0 3.1 0.1 3.9 1.9-0.2 0-0.4 0.1-0.5 0.1-21.3 0.1-42.6 0.2-63.9 0.3-0.7 0-1.6-0.3-2 0.1-1.1 0.9-2.6 2-2.7 3.2-0.2 1.6 1.7 0.9 2.6 0.9 11 0.2 21.9 0.3 32.9 0.3h20.1c29-0.1 57.9-0.1 86.9-0.2 2.6 0 5.2 0 7.9-0.2 0.4 0 1.3-1 1.2-1.2-0.8-1.4-1.4-3-3.5-3-10.6 0-21.2-0.2-31.9-0.2-11.4 0.1-22.6 0.1-34.1 0.1zm-5.3 12.7v-0.2h6.8c22.6-0.2 45.2-0.3 67.8-0.5 2.2 0 3-1.3 1.7-3.1-0.4-0.6-1.6-1-2.4-1.1-9.5-0.2-19-0.3-28.5-0.4-12.2-0.1-24.4-0.1-36.6-0.1-25.7 0.1-51.3 0.1-76.9 0.2-3.4 0-6.9 0.1-10.3 0.1-1.8 0-2 1.4-2.1 2.7-0.1 1.5 0.9 1.6 2 1.6 1.4 0 2.8 0.2 4.1 0.3 12.7 0.1 25.4 0.3 38.1 0.4 12 0.1 24.2 0.1 36.3 0.1zm-1.6 2.6v0c-11.5-0.1-23-0.1-34.6-0.1-15 0.1-29.9 0.2-44.9 0.3-1.4 0-2.1 0.4-2 1.9 0.1 1.4 1 1.6 2.1 1.6 9.8 0.1 19.6 0.3 29.4 0.3h92.3c12.1 0 24.3-0.2 36.4-0.3 1.2 0 2.1-0.2 2-1.6s-0.7-1.8-2.1-1.8c-10.6 0-21.2-0.2-31.9-0.3-15.5-0.1-31.1 0-46.7 0zm1 10.7c19.7 0 39.4 0.1 59.2 0 1.8 0 3.6-0.2 5.3-0.6 0.6-0.1 1.1-1 1.6-1.6-0.6-0.4-1.2-1-1.9-1.3-0.6-0.2-1.4-0.2-2-0.2-9.6-0.1-19.2-0.3-28.8-0.3-31.8 0-63.6 0.2-95.3 0.3-0.8 0-1.7 0-2.4 0.3-0.6 0.2-1.1 0.8-1.6 1.3 0.5 0.5 0.9 1.4 1.5 1.5 1.3 0.4 2.7 0.6 4.1 0.6h60.3z"/>
			<path class="st1" d="m228.8 280.3c52.6-10.1 105.4-9.5 158.8-0.6-6.7 5.2-9.7 12.4-13 19.3-1.5 3.2-2.3 6.7-3.7 10-0.8 1.8-2.2 3.4-3.4 5-0.3 0.4-1.2 0.5-1.9 0.5-8.4-0.6-16.8-1.3-25.2-1.9-6.7-0.5-13.5-1.2-20.2-1.3-11.8-0.1-23.7 0-35.5 0.4-10.7 0.4-21.4 1.3-32.1 1.9-4.9 0.3-6.1-0.6-7.6-5.4-1.2-3.8-2-7.7-3.5-11.3-2.5-6-6.9-10.7-11.6-15.2-0.4-0.3-0.7-0.7-1-1-0.1-0.1-0.1-0.2-0.1-0.4z"/>
			<path class="st1" d="m399.7 263.8v2.1c0.1 4.8-1.6 6.7-6.4 6.3-5.3-0.5-10.5-1.6-15.7-2.5-16.8-2.7-33.7-4.1-50.7-4.6-18.8-0.6-37.5-0.6-56.2 0.6-14.1 0.9-28.1 2.4-41.9 5.1-2.6 0.5-5.1 0.9-7.7 1.1-4.8 0.3-7.2-1.6-7.2-6.4 0.1-4.7 0.6-9.3 1.5-13.9 1.5-7.5 4.9-14.9 6.7-22.4 1-4 3.8-6.6 7.7-7.5 4-1 8.2-2 12.3-2 44.1-0.1 86.9-0.1 131 0.1 3.8 0 7.6 1 11.4 2 3.4 0.9 5.7 3.2 6.7 6.8 2.7 10.2 5.5 20.3 8.2 30.4 0.4 1.5 0.1 3.2 0.1 4.7 0.1 0.1 0.2 0.1 0.2 0.1zm-93.5-40.9c-21.9-0.1-42.4-0.1-64.4 0-3.4 0-6.8 0.9-10.1 1.8-2.8 0.8-5.1 2.4-6.1 5.3-3.4 10.4-7.3 21.1-8 32.1-0.4 5.6 1.5 7.2 7.2 6.7 0.3 0 0.5 0 0.8-0.1 5.8-0.8 11.5-2 17.3-2.5 15.8-1.4 31.7-3 47.5-3.5 21.6-0.7 43.3-0.3 64.9 1.9 9.7 1 19.3 2.4 29 3.6 2.5 0.3 5.1 0.9 7.6 0.8 3.5 0 5-1.8 4.9-5.4 0-1.3-0.1-2.6-0.3-3.9-1.7-10.2-5.1-19.9-8.4-29.7-0.8-2.5-2.4-4.4-4.9-5.1-3.6-1-7.3-2.1-10.9-2.1-22 0-44 0.1-66.1 0.1z"/>
			<path class="st1" d="m382.8 216.4h-157.8c6.2-2.8 12.1-4.2 18.2-5.3 24-4.4 47-4.9 71.4-4.5 14.2 0.2 28.4 1.1 42.5 3.2 8.3 1.2 16.6 2.8 24.5 6l1.2 0.6z"/>
			<path class="st1" d="m416.2 296.7c-2.2-0.8-4.1-1.4-6-2.1-12.8-4.9-24.4-1.3-31.7 10.2-1.8 2.9-3.2 6.1-4.9 9.2 0-5 1.3-9.8 3.5-14.2 3.3-6.6 7.8-12.2 13.7-16.5 0.9-0.7 2.3-1.1 3.4-1 6.1 1 12 2.7 17 6.6 2.5 1.9 4.3 4.3 5 7.8z"/>
			<path class="st1" d="m242 312.5c-3.2-7.1-7.3-13.3-13.9-17.5-7.4-4.7-14.9-5.5-22.8-1.9-2 0.9-4.1 1.5-6.4 2.3 0.2-2.7 1.4-4.6 3-6.2 4.5-4.6 10.4-6.3 16.4-7.9 2.7-0.7 4.7 0 6.8 1.8 8.1 6.9 14.3 15 16.4 25.6 0.2 1.4 0.3 2.6 0.5 3.8z"/>
			<path class="st1" d="m381.8 316.2c-0.2-10.8 8.5-19.8 19.3-19.8 11 0 20.3 9 20.5 19.9s-8.5 19.9-19.4 19.9c-11.2-0.1-20.2-8.9-20.4-20zm37.5 0.1c-0.2-9.9-8.1-17.6-18.1-17.7-9.6 0-17.5 8-17.3 17.6 0.2 9.8 8.2 17.6 18.2 17.7 9.7 0.1 17.3-7.8 17.2-17.6z"/>
			<path class="st1" d="m215.7 336c-11.1 0-20.1-8.8-20.3-20-0.2-10.7 8.7-19.7 19.5-19.7s20.1 9.1 20.3 19.9c0.2 11-8.5 19.8-19.5 19.8zm17.2-19.6c-0.2-9.9-8.1-17.8-17.8-17.8-9.9 0-17.7 7.7-17.6 17.3 0.2 10.2 8 18.1 17.9 18.1 10 0 17.7-7.8 17.5-17.6z"/>
			<path class="st1" d="m396.2 353.4c-0.1-3.6 2.5-6.3 6.1-6.3 3.5 0 6.3 2.7 6.4 6.1s-2.7 6.4-6.1 6.3c-3.4 0-6.3-2.7-6.4-6.1zm1.7-0.1c0 2.5 2.1 4.6 4.7 4.6 2.4 0 4.5-2.2 4.4-4.5-0.1-2.6-2.1-4.6-4.6-4.6-2.6 0-4.6 2-4.5 4.5z"/>
			<path class="st1" d="m221.9 352.6c0.1 3.3-2.7 6-6 6s-6.2-2.9-6.2-6.1 2.9-6.1 6-6c3.4 0 6.2 2.8 6.2 6.1zm-10.4-0.2c0 2.6 2 4.7 4.5 4.6s4.4-2 4.4-4.5-2.1-4.7-4.6-4.6-4.3 2-4.3 4.5z"/>
			<path d="m197.1 375.4c0.2-2 0.3-4 0.7-5.9 0.1-0.5 1.2-1.1 1.8-1.1 6-0.4 12.1-0.7 18.1-1 3.4-0.2 6.9-0.2 10.3-0.6 0.9-0.1 2-0.8 2.6-1.5 3.4-4.6 9-4.7 12.4 0.1 0.8 1.2 1.8 1.1 2.8 1.1h97.9 31c2.7-4.9 8.6-5.5 12.6-1.3 1 1 1.9 1.3 3.2 1.3 7.5 0 15 0 22.6-0.1 1.8 0 2.3 0.5 2.2 2.2-0.1 2.1 0.1 4.2 0.1 6.7h-20.1c-2.1 0-4.3 0.1-6.4 0.2-1.6 0.1-2.3-0.6-2.5-2-0.3-1.7-0.6-3.4-1-5.1-0.4-2-1.8-2.8-4.3-2.6-2.7 0.2-3.4 0.9-3.4 3.1 0 1.7-0.1 3.3 0.1 5 0.2 1.9-0.7 2.5-2.5 2.5-3.8 0-7.6 0.1-11.4 0.1-22.5 0.1-45 0.3-67.5 0.3h-46.6c-2.6 0-5.1-0.2-7.7-0.2-1.3 0-1.7-0.6-1.6-1.8 0.1-2 0.3-4 0.2-6 0-2.5-1.1-3.8-3.3-3.9-3.3-0.2-4.4 0.5-4.8 3.3-0.2 1.6-0.3 3.1-0.5 4.7-0.3 2.9-0.3 2.9-3.4 2.9-9.5-0.2-19-0.3-28.6-0.5-0.8 0.1-1.8 0.1-3 0.1z"/>
			<path d="m315.2 337.7h34c10.6 0 21.2 0.2 31.9 0.2 2.1 0 2.8 1.5 3.5 3 0.1 0.2-0.7 1.2-1.2 1.2-2.6 0.2-5.2 0.2-7.9 0.2-29 0.1-57.9 0.1-86.9 0.2-6.7 0-13.4 0.1-20.1 0-11-0.1-21.9-0.2-32.9-0.3-0.9 0-2.8 0.7-2.6-0.9 0.1-1.2 1.6-2.3 2.7-3.2 0.4-0.3 1.3-0.1 2-0.1 21.3-0.1 42.6-0.2 63.9-0.3 0.2 0 0.4-0.1 0.5-0.1-0.8-1.8-2.3-1.9-3.9-1.9h-45.5c-3.5 0-7-0.1-10.6-0.1-0.5 0-1-0.1-2.2-0.2 2.6-2 4.5-3.9 7.6-3.9 17.2-0.1 34.3-0.2 51.5-0.3 1.8 0 1.8 0 3-1.8h-49.1c-0.1-0.2-0.1-0.4-0.2-0.6 1.3-0.5 2.5-0.9 3.8-1.4 6.7-2.7 13.8-2.5 20.9-2.5 22.3 0 44.6 0.1 66.9 0.1 6.2 0 12.3 0.2 18.2 2.4 1.1 0.4 2.3 0.9 3.4 1.3 0 0.2-0.1 0.4-0.1 0.5h-50.6c0.5 1.7 1.5 1.9 3 1.9 14.7 0 29.4 0.1 44.1 0.1 3.2 0 6.5 0 9.7 0.2 2.6 0.2 4.5 1.7 6.4 3.3 0 0.2-0.1 0.4-0.1 0.6-1 0.1-1.9 0.3-2.9 0.3-19 0.1-37.9 0.1-56.9 0.1-1.5-0.1-2.6 0.3-3.3 2z"/>
			<path d="m309.9 350.4h-36.4c-12.7-0.1-25.4-0.2-38.1-0.4-1.4 0-2.8-0.2-4.1-0.3-1.1 0-2.2 0-2-1.6 0.1-1.3 0.3-2.7 2.1-2.7 3.4-0.1 6.9-0.1 10.3-0.1 25.6-0.1 51.3-0.2 76.9-0.2 12.2 0 24.4 0 36.6 0.1 9.5 0.1 19 0.2 28.5 0.4 0.8 0 2 0.4 2.4 1.1 1.3 1.8 0.5 3.1-1.7 3.1-22.6 0.2-45.2 0.3-67.8 0.5h-6.8c0.1-0.1 0.1 0 0.1 0.1z"/>
			<path d="m308.3 353h46.8c10.6 0 21.2 0.2 31.9 0.3 1.4 0 2.1 0.5 2.1 1.8 0.1 1.4-0.8 1.6-2 1.6-12.1 0.1-24.3 0.3-36.4 0.3-30.8 0.1-61.5 0.1-92.3 0-9.8 0-19.6-0.2-29.4-0.3-1.2 0-2-0.2-2.1-1.6-0.1-1.5 0.6-1.9 2-1.9 15-0.1 29.9-0.3 44.9-0.3 11.5 0 23 0 34.5 0.1v0z"/>
			<path d="m309.3 363.7h-60.4c-1.4 0-2.8-0.2-4.1-0.6-0.6-0.2-1-1-1.5-1.5 0.5-0.4 1-1.1 1.6-1.3 0.7-0.3 1.6-0.3 2.4-0.3 31.8-0.1 63.6-0.2 95.3-0.3 9.6 0 19.2 0.2 28.8 0.3 0.7 0 1.4 0 2 0.2 0.7 0.3 1.2 0.8 1.9 1.3-0.5 0.6-1 1.5-1.6 1.6-1.7 0.4-3.5 0.6-5.3 0.6h-59.1z"/>
			<path d="m306.2 222.9c22.1 0 44.1-0.1 66.2 0.1 3.6 0 7.3 1.1 10.9 2.1 2.4 0.7 4 2.6 4.9 5.1 3.3 9.8 6.7 19.5 8.4 29.7 0.2 1.3 0.2 2.6 0.3 3.9 0.1 3.6-1.4 5.4-4.9 5.4-2.5 0-5.1-0.5-7.6-0.8-9.7-1.2-19.3-2.6-29-3.6-21.6-2.2-43.3-2.6-64.9-1.9-15.9 0.5-31.7 2.2-47.5 3.5-5.8 0.5-11.5 1.6-17.3 2.5-0.3 0-0.5 0.1-0.8 0.1-5.6 0.5-7.5-1.1-7.2-6.7 0.7-11 4.6-21.7 8-32.1 1-2.9 3.3-4.6 6.1-5.3 3.3-0.9 6.7-1.8 10.1-1.8 21.8-0.3 42.4-0.2 64.3-0.2zm1.2 1.9v0c-20.9-0.1-40.4-0.1-61.3 0-3.9 0-7.8 0.8-11.6 1.6-3.4 0.7-7.2 2.9-8.2 6.4-0.8 2.7-1.7 5.4-2.3 8.1-1.3 6.6-2.7 13.2-3.4 19.8-0.5 4.6 1.7 6.2 6.4 5.6 7.6-1 15.1-2.2 22.7-2.8 14.1-1.1 28.1-2.4 42.2-2.7 15.3-0.3 30.6 0 45.9 0.7 11 0.4 22 1.7 33 2.8 5.6 0.6 11.2 1.7 16.8 2.3 5.5 0.6 7-1.5 6.5-6-0.1-1.4-0.1-2.9-0.5-4.3-2.5-8.3-5.2-16.5-7.8-24.8-0.8-2.5-2.5-4.2-4.9-4.7-4-0.9-8-1.9-12-1.9-20.4-0.2-41-0.1-61.5-0.1z"/>
			<path d="m419.3 316.3c0.2 9.8-7.5 17.7-17.2 17.7-9.9-0.1-18-7.9-18.2-17.7-0.2-9.7 7.6-17.7 17.3-17.6 10-0.1 17.9 7.7 18.1 17.6zm-17.9-13.9c-7.7 0-13.8 6.1-13.6 13.7 0.1 7.9 6.5 14.1 14.5 14 7.4 0 13.7-6.6 13.4-14-0.3-7.5-6.7-13.7-14.3-13.7z"/>
			<path d="m232.9 316.4c0.2 9.9-7.5 17.6-17.4 17.6s-17.8-7.9-17.9-18.1c-0.2-9.6 7.6-17.3 17.6-17.3 9.6 0 17.5 7.9 17.7 17.8zm-3.8-0.1c-0.2-7.7-6.3-13.8-14-13.8s-13.9 6.2-13.7 13.8 6.6 13.9 14.1 13.9c7.7-0.1 13.8-6.2 13.6-13.9z"/>
			<path d="m397.9 353.3c0-2.5 2-4.6 4.5-4.5 2.6 0 4.6 2 4.6 4.6 0 2.3-2.1 4.5-4.4 4.5-2.6 0-4.7-2-4.7-4.6z"/>
			<path d="m211.5 352.4c0-2.5 1.8-4.4 4.3-4.5 2.5 0 4.6 2.1 4.6 4.6 0 2.4-1.9 4.4-4.4 4.5s-4.5-1.9-4.5-4.6z"/>
			<path class="st1" d="m307.4 224.8c20.6 0 41.1-0.1 61.7 0.1 4 0 8 1 12 1.9 2.4 0.5 4.1 2.3 4.9 4.7 2.6 8.3 5.2 16.5 7.8 24.8 0.4 1.4 0.4 2.9 0.5 4.3 0.4 4.5-1.1 6.6-6.5 6-5.6-0.6-11.2-1.8-16.8-2.3-11-1.1-22-2.3-33-2.8-15.3-0.6-30.6-1-45.9-0.7-14.1 0.3-28.2 1.5-42.2 2.7-7.6 0.6-15.1 1.9-22.7 2.8-4.7 0.6-6.9-0.9-6.4-5.6 0.7-6.7 2.1-13.2 3.4-19.8 0.5-2.7 1.5-5.4 2.3-8.1 1-3.5 4.8-5.7 8.2-6.4 3.8-0.8 7.7-1.6 11.6-1.6 20.7-0.2 40.2-0.1 61.1 0v0z"/>
			<path class="st1" d="m401.4 302.4c7.6 0 14 6.2 14.3 13.7 0.3 7.4-6.1 14-13.4 14-8 0-14.4-6.1-14.5-14-0.2-7.6 5.9-13.7 13.6-13.7z"/>
			<path class="st1" d="m229.1 316.3c0.2 7.7-5.9 13.8-13.7 13.9-7.5 0-13.9-6.3-14.1-13.9s6-13.8 13.7-13.8c7.8 0 13.9 6.1 14.1 13.8z"/>
		
		
			<path class="st4" d="m306.9 234.7c14.1 0 28.3-0.1 42.4 0.1 2.7 0 5.5 0.7 8.2 1.3 1.6 0.4 2.8 1.5 3.4 3.2 1.8 5.6 2.2 11.1 3.9 16.7 0.3 0.9 0.3 1.9 0.4 2.9 0.3 3.1-0.9 4.8-4.6 4.4-3.9-0.4-6.1-0.6-10-1-7.6-0.7-16-1-23.5-1.3-10.5-0.4-20.4-0.3-30.9-0.1-9.7 0.2-19.3 0.5-28.9 1.2-5.2 0.4-10.4 0-15.6 0.7-3.2 0.4-4.7-0.6-4.4-3.7 0.5-4.5 1.5-8.9 2.3-13.4 0.4-1.9 1-3.6 1.6-5.5 0.7-2.4 3.3-3.8 5.7-4.3 2.6-0.6 5.3-1.1 8-1.1 14.3-0.1 27.7-0.1 42-0.1z"/>
			
				<defs>
					<polygon id="b" points="242.2 237.6 266.7 264.9 238.7 264.3 237.3 235.8"/>
				</defs>
				<clipPath id="a">
					<use xlink:href="#b"/>
				</clipPath>
				<path class="st5" d="m307.2 234.9c14.1 0 28.3-0.1 42.4 0.1 2.7 0 5.5 0.7 8.2 1.3 1.6 0.4 2.8 1.5 3.4 3.2 1.8 5.6 2.2 11.1 3.9 16.7 0.3 0.9 0.3 1.9 0.4 2.9 0.3 3.1-0.7 4.4-4.5 4-3.9-0.4-6.3 0.1-10.2-0.3-7.6-0.7-15.1-1.6-22.7-1.9-10.5-0.4-21.1-0.7-31.6-0.4-9.7 0.2-19.4 0.3-29.1 1.1-5.2 0.4-10.3 0.7-15.5 1.4-3.2 0.4-4.7-0.6-4.4-3.7 0.5-4.5 1.5-8.9 2.3-13.4 0.4-1.9 1-3.6 1.6-5.5 0.7-2.4 3.3-3.8 5.7-4.3 2.6-0.6 5.3-1.1 8-1.1 14.3-0.2 27.7-0.2 42.1-0.1z"/>
			
		
	
	
		<path class="st1" d="m250.9 168.2-1.2 0.9c-2.8 2.1-5.6 4.1-8.4 6.2-0.5 0.4-0.7 0.7-0.4 1.4 1.2 3.5 2.3 7.1 3.4 10.6 0.1 0.2 0.1 0.4 0.2 0.8-0.3-0.2-0.4-0.3-0.6-0.4-3.1-2.2-6.2-4.5-9.3-6.8-0.4-0.3-0.6-0.3-1 0-3.1 2.2-6.2 4.5-9.3 6.7-0.2 0.1-0.4 0.3-0.7 0.5 0.3-1 0.6-1.8 0.8-2.6 1-3 1.9-6 2.9-9.1 0.2-0.5 0.1-0.8-0.3-1.1-3.1-2.2-6.2-4.5-9.2-6.8-0.2-0.1-0.3-0.3-0.5-0.5h3.6 8.6c0.5 0 0.7-0.1 0.8-0.6 1.2-3.6 2.3-7.3 3.5-10.9 0.1-0.2 0.2-0.4 0.3-0.8 0.6 2 1.2 3.8 1.8 5.6 0.7 2.1 1.4 4.1 2 6.2 0.1 0.5 0.4 0.6 0.8 0.6h11.5 0.6c0.1 0 0.1 0.1 0.1 0.1z"/>
		<path class="st1" d="m322.6 168.2-1.2 0.9c-2.8 2.1-5.6 4.1-8.4 6.2-0.5 0.4-0.7 0.7-0.4 1.4 1.2 3.5 2.3 7.1 3.4 10.6 0.1 0.2 0.1 0.4 0.2 0.8-0.3-0.2-0.4-0.3-0.6-0.4-3.1-2.2-6.2-4.5-9.3-6.8-0.4-0.3-0.6-0.3-1 0-3.1 2.2-6.2 4.5-9.3 6.7-0.2 0.1-0.4 0.3-0.7 0.5 0.3-1 0.6-1.8 0.8-2.6 1-3 1.9-6 2.9-9.1 0.2-0.5 0.1-0.8-0.3-1.1-3.1-2.2-6.2-4.5-9.2-6.8-0.2-0.1-0.3-0.3-0.5-0.5h3.6 8.6c0.5 0 0.7-0.1 0.8-0.6 1.2-3.6 2.3-7.3 3.5-10.9 0.1-0.2 0.2-0.4 0.3-0.8 0.6 2 1.2 3.8 1.8 5.6 0.7 2.1 1.4 4.1 2 6.2 0.1 0.5 0.4 0.6 0.8 0.6h11.5 0.6c0.1 0 0.1 0.1 0.1 0.1z"/>
		<path class="st1" d="m394.3 168.2-1.2 0.9c-2.8 2.1-5.6 4.1-8.4 6.2-0.5 0.4-0.7 0.7-0.4 1.4 1.2 3.5 2.3 7.1 3.4 10.6 0.1 0.2 0.1 0.4 0.2 0.8-0.3-0.2-0.4-0.3-0.6-0.4-3.1-2.2-6.2-4.5-9.3-6.8-0.4-0.3-0.6-0.3-1 0-3.1 2.2-6.2 4.5-9.3 6.7-0.2 0.1-0.4 0.3-0.7 0.5 0.3-1 0.6-1.8 0.8-2.6 1-3 1.9-6 2.9-9.1 0.2-0.5 0.1-0.8-0.3-1.1-3.1-2.2-6.2-4.5-9.2-6.8-0.2-0.1-0.3-0.3-0.5-0.5h3.6 8.6c0.5 0 0.7-0.1 0.8-0.6 1.2-3.6 2.3-7.3 3.5-10.9 0.1-0.2 0.2-0.4 0.3-0.8 0.6 2 1.2 3.8 1.8 5.6 0.7 2.1 1.4 4.1 2 6.2 0.1 0.5 0.4 0.6 0.8 0.6h11.5 0.6c0.1 0 0.1 0.1 0.1 0.1z"/>
	
	<path class="st1" d="m458.1 233.9-1.2 0.9c-2.8 2.1-5.6 4.1-8.4 6.2-0.5 0.4-0.7 0.7-0.4 1.4 1.2 3.5 2.3 7.1 3.4 10.6 0.1 0.2 0.1 0.4 0.2 0.8-0.3-0.2-0.4-0.3-0.6-0.4-3.1-2.2-6.2-4.5-9.3-6.8-0.4-0.3-0.6-0.3-1 0-3.1 2.2-6.2 4.5-9.3 6.7-0.2 0.1-0.4 0.3-0.7 0.5 0.3-1 0.6-1.8 0.8-2.6 1-3 1.9-6 2.9-9.1 0.2-0.5 0.1-0.8-0.3-1.1-3.1-2.2-6.2-4.5-9.2-6.8-0.2-0.1-0.3-0.3-0.5-0.5h3.6 8.6c0.5 0 0.7-0.1 0.8-0.6 1.2-3.6 2.3-7.3 3.5-10.9 0.1-0.2 0.2-0.4 0.3-0.8 0.6 2 1.2 3.8 1.8 5.6 0.7 2.1 1.4 4.1 2 6.2 0.1 0.5 0.4 0.6 0.8 0.6h11.5 0.6c0.1 0 0.1 0.1 0.1 0.1z"/>
	<path class="st1" d="m469.5 330-1.2 0.9c-2.8 2.1-5.6 4.1-8.4 6.2-0.5 0.4-0.7 0.7-0.4 1.4 1.2 3.5 2.3 7.1 3.4 10.6 0.1 0.2 0.1 0.4 0.2 0.8-0.3-0.2-0.4-0.3-0.6-0.4-3.1-2.2-6.2-4.5-9.3-6.8-0.4-0.3-0.6-0.3-1 0-3.1 2.2-6.2 4.5-9.3 6.7-0.2 0.1-0.4 0.3-0.7 0.5 0.3-1 0.6-1.8 0.8-2.6 1-3 1.9-6 2.9-9.1 0.2-0.5 0.1-0.8-0.3-1.1-3.1-2.2-6.2-4.5-9.2-6.8-0.2-0.1-0.3-0.3-0.5-0.5h3.6 8.6c0.5 0 0.7-0.1 0.8-0.6 1.2-3.6 2.3-7.3 3.5-10.9 0.1-0.2 0.2-0.4 0.3-0.8 0.6 2 1.2 3.8 1.8 5.6 0.7 2.1 1.4 4.1 2 6.2 0.1 0.5 0.4 0.6 0.8 0.6h11.5 0.6c0.1 0 0.1 0 0.1 0.1z"/>


	<path class="st1" d="m79.9 301.5c-0.5 0.3-0.9 0.7-1.4 1l-9.9 7.2c-0.6 0.4-0.8 0.8-0.5 1.6 1.4 4.1 2.7 8.3 4 12.4 0.1 0.2 0.1 0.5 0.3 0.9-0.3-0.2-0.5-0.3-0.7-0.4-3.6-2.6-7.3-5.2-10.9-7.9-0.5-0.3-0.8-0.4-1.2 0-3.6 2.6-7.3 5.2-10.9 7.8-0.2 0.2-0.5 0.3-0.9 0.6 0.4-1.1 0.6-2.1 0.9-3 1.1-3.5 2.3-7.1 3.4-10.6 0.2-0.6 0.1-0.9-0.4-1.3-3.6-2.6-7.2-5.3-10.8-7.9-0.2-0.1-0.4-0.3-0.5-0.6h4.2 10.1c0.6 0 0.8-0.2 1-0.7 1.4-4.3 2.7-8.5 4.1-12.7 0.1-0.3 0.2-0.5 0.4-1 0.8 2.3 1.4 4.4 2.1 6.5 0.8 2.4 1.6 4.8 2.3 7.3 0.2 0.6 0.4 0.7 1 0.7h13.5 0.7s0.1 0 0.1 0.1z"/>
	<path class="st1" d="m571.1 302.7c-0.5 0.3-0.9 0.7-1.4 1l-9.9 7.2c-0.6 0.4-0.8 0.8-0.5 1.6 1.4 4.1 2.7 8.3 4 12.4 0.1 0.2 0.1 0.5 0.3 0.9-0.3-0.2-0.5-0.3-0.7-0.4-3.6-2.6-7.3-5.2-10.9-7.9-0.5-0.3-0.8-0.4-1.2 0-3.6 2.6-7.3 5.2-10.9 7.8-0.2 0.2-0.5 0.3-0.9 0.6 0.4-1.1 0.6-2.1 0.9-3 1.1-3.5 2.3-7.1 3.4-10.6 0.2-0.6 0.1-0.9-0.4-1.3-3.6-2.6-7.2-5.3-10.8-7.9-0.2-0.1-0.4-0.3-0.5-0.6h4.2 10.1c0.6 0 0.8-0.2 1-0.7 1.4-4.3 2.7-8.5 4.1-12.7 0.1-0.3 0.2-0.5 0.4-1 0.8 2.3 1.4 4.4 2.1 6.5 0.8 2.4 1.6 4.8 2.3 7.3 0.2 0.6 0.4 0.7 1 0.7h13.5 0.7c0.1 0 0.1 0.1 0.1 0.1z"/>


	<path class="st1" d="m64 181.8 7.2-11 42.8 10.4 0.1-0.1-27-34.7 7.1-10.8 44.5 29-4.8 7.4-34.3-22.4-0.1 0.1 26.3 34.7-4.2 6.4-42.4-10.1-0.2 0.3 34.3 22.4-4.8 7.4-44.5-29z"/>
	<path class="st1" d="m109 120.7 6.5-6.6 38 37.1-6.5 6.6-38-37.1z"/>
	<path class="st1" d="m129.4 100.1 7.9-5.8 42.6 17.4 0.1-0.1-23-31.6 7.2-5.2 31.2 43-7.9 5.8-42.5-17.5-0.2 0.1 22.9 31.6-7.2 5.2-31.1-42.9z"/>
	<path class="st1" d="m181.9 65.8 8.3-4.1 23.5 47.6-8.3 4.1-23.5-47.6z"/>
	<path class="st1" d="m255.9 39.1c3.9-0.7 7.5-0.6 10.9 0.2 3.4 0.9 6.4 2.4 9 4.5s4.8 4.7 6.5 7.8c1.8 3.1 3 6.5 3.7 10.2 0.7 3.8 0.8 7.4 0.2 10.9-0.5 3.5-1.6 6.7-3.3 9.6s-3.9 5.3-6.8 7.3c-2.8 2-6.2 3.4-10.1 4.1s-7.5 0.7-10.9-0.2-6.3-2.3-9-4.4c-2.6-2.1-4.8-4.7-6.5-7.8-1.8-3.1-3-6.5-3.7-10.3-0.7-3.7-0.8-7.3-0.2-10.8 0.5-3.5 1.6-6.7 3.3-9.6s3.9-5.3 6.8-7.4c2.8-2 6.2-3.3 10.1-4.1zm1.4 7.5c-2.8 0.5-5.1 1.5-6.9 3s-3.2 3.3-4.1 5.4-1.5 4.4-1.6 6.9c-0.2 2.5 0 5 0.4 7.5 0.5 2.5 1.2 4.9 2.3 7.1 1.1 2.3 2.4 4.2 4 5.9 1.6 1.6 3.5 2.8 5.8 3.6 2.2 0.7 4.7 0.9 7.5 0.3 2.8-0.5 5.1-1.5 6.9-3s3.2-3.3 4.1-5.4 1.5-4.4 1.6-6.9c0.2-2.5 0-5-0.4-7.5-0.5-2.5-1.2-4.9-2.3-7.1-1.1-2.3-2.4-4.2-4-5.9-1.6-1.6-3.5-2.8-5.8-3.6-2.2-0.7-4.7-0.8-7.5-0.3z"/>
	<path class="st1" d="m297.9 33.8 9.4 0.9 5.6 41.3h0.1l14.6-39.4 9.5 0.9 6.4 41.4h0.1l13.8-39.4 9.4 0.9-19.7 51.4-9.4-0.9-6.6-41.4h-0.1l-14.8 39.3-9.5-0.9-8.8-54.1z"/>
	<path class="st1" d="m385 46.7 9.1 3.6 8.2 45.3 0.1 0.1 14.4-36.4 8.2 3.2-19.5 49.4-9.1-3.6-8.2-45.2-0.2-0.1-14.3 36.3-8.2-3.2 19.5-49.4z"/>
	<path class="st1" d="m444.3 73.3 31.5 21.7-4.6 6.6-23.8-16.4-7.9 11.5 22.1 15.2-4.3 6.2-22.1-15.2-8.8 12.8 24.3 16.7-4.6 6.6-31.9-22 30.1-43.7z"/>
	<path class="st1" d="m490.6 107.8 17.2 18.6c4 4.3 6 8.4 6.1 12.2 0.1 3.9-1.5 7.3-4.8 10.4-1.9 1.7-3.6 2.9-5.4 3.4-1.7 0.6-3.3 0.9-4.7 0.8-1.4 0-2.6-0.3-3.6-0.7s-1.7-0.7-2.1-1l-0.1 0.1c0.5 0.6 0.9 1.4 1.2 2.4 0.3 0.9 0.4 2 0.3 3.2s-0.5 2.4-1.1 3.7c-0.7 1.3-1.8 2.7-3.3 4.1-2.3 2.1-4.2 4.2-5.8 6.3s-2.4 3.9-2.5 5.3l-6.8-7.3c0.4-1.3 1-2.4 2-3.5 0.9-1 1.9-2 2.8-2.9 1.8-1.6 3.2-3.2 4.3-4.6s1.8-2.8 2.1-4.2 0.2-2.7-0.3-4.1-1.5-2.8-3-4.4l-9.3-10-16.1 14.8-6.3-6.8 39.2-35.8zm-11.4 23.2 10.3 11.2c2 2.2 4.1 3.4 6.1 3.5 2.1 0.2 4.2-0.7 6.2-2.6 1.2-1.1 2.1-2.3 2.5-3.3 0.4-1.1 0.6-2.2 0.4-3.2s-0.5-2-1.1-3-1.3-1.9-2.1-2.7l-10.2-11.1-12.1 11.2z"/>
	<path class="st1" d="m503.8 179c-1.8 1-3.1 2.2-4 3.5s-1.4 2.7-1.6 4.3c-0.2 1.5-0.1 3.1 0.4 4.7 0.4 1.6 1.1 3.2 2.1 4.9 1 1.8 2.1 3.2 3.2 4.2s2.2 1.7 3.3 2.1 2.2 0.5 3.2 0.4 2-0.5 2.8-0.9c1.8-1 2.8-2.2 3.2-3.4 0.4-1.3 0.5-2.5 0.3-3.6-0.3-2-0.9-4.2-1.6-6.7s-1.5-5.6-2.5-9.2c-0.6-2.3-0.9-4.3-0.8-6.1s0.4-3.4 1-4.7 1.4-2.5 2.3-3.5 2.1-1.8 3.3-2.5c2.3-1.3 4.6-2 6.9-2s4.4 0.5 6.4 1.4c2 1 3.9 2.3 5.6 4s3.1 3.6 4.3 5.7c1.4 2.4 2.4 4.9 3 7.3 0.6 2.5 0.7 4.9 0.4 7.2s-1.1 4.5-2.4 6.5-3.1 3.7-5.5 5.1l-4.6-8.1c2.8-1.9 4.4-4.1 4.6-6.6s-0.5-5.2-2.1-8c-0.5-0.9-1.2-1.9-2-2.7-0.8-0.9-1.6-1.6-2.5-2.2s-1.9-0.9-3-1-2.2 0.2-3.4 0.9c-1.6 0.9-2.6 2.2-3 3.7-0.3 1.5-0.3 3.3 0.2 5.2 0.1 0.2 0.3 1 0.6 2.3 0.4 1.4 0.8 2.9 1.2 4.6 0.5 1.7 0.9 3.3 1.3 4.9s0.7 2.8 0.9 3.5c0.4 1.8 0.5 3.5 0.3 5-0.2 1.6-0.6 3.1-1.2 4.4-0.6 1.4-1.4 2.6-2.4 3.6-1 1.1-2.1 1.9-3.3 2.6-2.6 1.5-5.1 2.2-7.5 2.2s-4.7-0.5-6.9-1.6c-2.1-1.1-4.1-2.5-5.9-4.4s-3.3-4-4.6-6.2c-1.5-2.6-2.6-5.3-3.3-8s-0.9-5.3-0.5-7.8c0.3-2.5 1.3-4.8 2.8-7.1 1.5-2.2 3.6-4.2 6.5-5.8l4.5 7.9z"/>


	<path class="st1" d="m138.3 446.4c2.5 3 4.3 6.2 5.1 9.6 0.9 3.4 1 6.7 0.5 10s-1.7 6.5-3.6 9.5c-1.8 3.1-4.2 5.8-7.1 8.2-2.9 2.5-6.1 4.3-9.4 5.6s-6.7 1.9-10 1.8-6.6-0.8-9.7-2.3-6-3.7-8.5-6.8c-2.5-3-4.3-6.2-5.2-9.6s-1.1-6.7-0.5-10c0.5-3.3 1.7-6.5 3.6-9.5 1.8-3.1 4.2-5.8 7.1-8.3 2.9-2.4 6-4.3 9.3-5.5 3.3-1.3 6.7-1.9 10-1.8s6.6 0.8 9.7 2.3c3.3 1.5 6.1 3.7 8.7 6.8zm-5.9 4.8c-1.8-2.2-3.8-3.7-6-4.5s-4.4-1.2-6.7-0.9c-2.3 0.2-4.6 0.9-6.8 2-2.3 1.1-4.4 2.4-6.3 4.1s-3.6 3.5-5.1 5.5-2.5 4.2-3.2 6.4c-0.6 2.2-0.7 4.5-0.3 6.8s1.6 4.5 3.4 6.7 3.8 3.7 6 4.5 4.4 1.2 6.7 0.9c2.3-0.2 4.6-0.9 6.8-2 2.3-1.1 4.4-2.4 6.3-4.1s3.6-3.5 5.1-5.5 2.5-4.2 3.2-6.4c0.6-2.2 0.7-4.5 0.3-6.8s-1.5-4.5-3.4-6.7z"/>
	<path class="st1" d="m158.6 470.2 29 22.4-4.9 6.4-21.6-16.7-8.5 11 19 14.7-4.6 6-19-14.7-14.4 18.6-7.4-5.7 32.4-42z"/>
	<path class="st1" d="m223.7 510.2 9.3 3.5 0.4 56.9-9.4-3.6 0.3-14.9-19.8-7.5-9.6 11.4-9-3.4 37.8-42.4zm-14.4 28.7 15.2 5.7 0.6-24.2-0.2-0.1-15.6 18.6z"/>
	<path class="st1" d="m253.8 521.6 13 1.4 10 42.9h0.1l18.8-39.7 12.9 1.4-5.9 52.8-8.8-1 4.5-40.7h-0.1l-19.1 39.1-7.6-0.8-10.1-42.3h-0.1l-4.5 40.7-8.8-1 5.7-52.8z"/>
	<path class="st1" d="m316.9 526.4 37.9-4.9 1 8-28.7 3.7 1.8 13.8 26.5-3.5 1 7.5-26.5 3.5 2 15.4 29.2-3.8 1 8-38.4 5-6.8-52.7z"/>
	<path class="st1" d="m360.9 520 23.9-8.6c5.5-2 10.1-2.3 13.7-0.9s6.2 4.2 7.7 8.4c0.9 2.4 1.2 4.5 1.1 6.3s-0.5 3.4-1.1 4.7-1.3 2.3-2 3.1c-0.8 0.7-1.3 1.3-1.7 1.6l0.1 0.1c0.8-0.2 1.7-0.2 2.7-0.2 1 0.1 2 0.4 3.1 0.9 1 0.5 2 1.4 3 2.5s1.8 2.7 2.5 4.6c1.1 2.9 2.2 5.5 3.5 7.8 1.3 2.2 2.6 3.7 3.9 4.4l-9.4 3.4c-1-0.8-1.9-1.9-2.4-3.2-0.6-1.3-1.1-2.5-1.5-3.7-0.8-2.3-1.7-4.2-2.5-5.8-0.9-1.6-1.9-2.7-3-3.6-1.1-0.8-2.4-1.3-3.9-1.3s-3.2 0.3-5.2 1l-12.9 4.6 7.4 20.6-8.7 3.1-18.3-49.8zm16.9 19.6 14.3-5.2c2.8-1 4.7-2.4 5.6-4.3s1-4.1 0-6.8c-0.6-1.6-1.3-2.8-2.1-3.6s-1.8-1.4-2.8-1.7-2.1-0.3-3.2-0.1-2.2 0.5-3.4 0.9l-14.2 5.1 5.8 15.7z"/>
	<path class="st1" d="m408 500.8 8.1-4.5 25.8 46.4-8.1 4.5-25.8-46.4z"/>
	<path class="st1" d="m463.7 482.9c-1.3-1-2.6-1.7-3.9-2.3s-2.7-0.9-4.2-1c-1.4-0.1-2.9 0.2-4.4 0.7s-3 1.3-4.5 2.5c-2.2 1.8-3.8 3.7-4.7 5.9s-1.3 4.4-1.1 6.7 0.8 4.6 1.8 6.9 2.3 4.4 3.9 6.4 3.3 3.7 5.3 5.3c2 1.5 4.1 2.6 6.3 3.3s4.5 0.9 6.8 0.5 4.6-1.4 6.8-3.2c1.6-1.3 2.8-2.7 3.6-4.3 0.8-1.5 1.3-3.2 1.4-4.9s-0.1-3.4-0.6-5.1-1.3-3.4-2.4-5l7.1-5.6c1.8 2.6 3.1 5.3 3.8 8.1s0.9 5.5 0.5 8.3c-0.4 2.7-1.3 5.3-2.7 7.8-1.5 2.5-3.4 4.7-6 6.7-3.1 2.5-6.4 4.1-9.7 4.9-3.4 0.8-6.7 0.9-10 0.3s-6.4-1.9-9.4-3.8-5.7-4.4-8.1-7.4c-2.3-3-4.1-6.1-5.3-9.5s-1.7-6.7-1.5-10.1c0.1-3.3 1-6.6 2.5-9.7s3.9-5.9 7-8.4c2.3-1.8 4.8-3.3 7.4-4.2 2.6-1 5.1-1.5 7.7-1.5 2.5 0 5 0.5 7.3 1.4 2.4 1 4.5 2.5 6.6 4.6l-7.3 5.7z"/>
	<path class="st1" d="m473.4 448.3 6.2-7.7 54.1 17.5-6.3 7.7-14.1-5-13.3 16.5 7.8 12.7-6 7.5-28.4-49.2zm22.8 22.6 10.2-12.6-22.7-8.2-0.1 0.2 12.6 20.6z"/>

</svg>
