<?xml version="1.0" encoding="utf-8"?>
<!-- Generator: Adobe Illustrator 19.1.0, SVG Export Plug-In . SVG Version: 6.00 Build 0)  -->
<svg version="1.1" id="Layer_1" xmlns="http://www.w3.org/2000/svg" xmlns:xlink="http://www.w3.org/1999/xlink" x="0px" y="0px"
	 viewBox="0 0 610 610" style="enable-background:new 0 0 610 610;" xml:space="preserve">
<style type="text/css">
	.st0{fill:#FFFFFF;}
</style>
<path class="st0" d="M305.1,606.4C138.7,606.4,3.3,471.1,3.3,304.7C3.3,138.3,138.7,2.9,305.1,2.9c166.4,0,301.8,135.4,301.8,301.8
	C606.8,471.1,471.5,606.4,305.1,606.4z M305.1,53.1C166.4,53.1,53.5,166,53.5,304.7s112.8,251.6,251.6,251.6
	s251.6-112.8,251.6-251.6S443.8,53.1,305.1,53.1z"/>
<circle class="st0" cx="305.1" cy="304.7" r="66.3"/>
<path class="st0" d="M354.6,348.7c0,0-17.3,16.3-18.5,29.7c0,0.4-13.4,142.8-13.5,142.9c-1.7,21.7,24.1,41.2,24.1,41.2l-82.4,0.1
	c0,0,23.9-18.3,22-41.3c0-0.2-12.2-142.5-12.2-142.9c-1.5-12-19.4-31-18.5-29.7H354.6z"/>
<g>
	<path class="st0" d="M337.3,246.8c0,0,19.7,13.4,33,11.7c0.4-0.1,142.4-17.4,142.5-17.4c21.6-2.9,35.1-32.4,35.1-32.4l17.7,80.5
		c0,0-23-19.5-45.1-12.6c-0.2,0.1-136.6,42.4-137,42.5c-11.4,4.1-26.1,25.6-25.1,24.4L337.3,246.8z"/>
	<path class="st0" d="M272.8,246.8c0,0-19.7,13.4-33,11.7c-0.4-0.1-142.4-17.4-142.5-17.4c-21.6-2.9-35.1-32.4-35.1-32.4l-17.7,80.5
		c0,0,23-19.5,45.1-12.6c0.2,0.1,136.6,42.4,137,42.5c11.4,4.1,26.1,25.6,25.1,24.4L272.8,246.8z"/>
</g>
<circle class="st0" cx="305" cy="302" r="38.5"/>
</svg>
